<svg width="21" height="20" viewBox="0 0 21 20" fill="none" xmlns="http://www.w3.org/2000/svg">
<path d="M11.725 1.66666H5.25C4.78587 1.66666 4.34075 1.84225 4.01256 2.15481C3.68437 2.46737 3.5 2.8913 3.5 3.33332V16.6667C3.5 17.1087 3.68437 17.5326 4.01256 17.8452C4.34075 18.1577 4.78587 18.3333 5.25 18.3333H15.75C16.2141 18.3333 16.6592 18.1577 16.9874 17.8452C17.3156 17.5326 17.5 17.1087 17.5 16.6667V10.5" stroke="#F39326" stroke-linecap="round" stroke-linejoin="round"/>
<path d="M1.75 5H5.25" stroke="#F39326" stroke-linecap="round" stroke-linejoin="round"/>
<path d="M1.75 8.33334H5.25" stroke="#F39326" stroke-linecap="round" stroke-linejoin="round"/>
<path d="M1.75 11.6667H5.25" stroke="#F39326" stroke-linecap="round" stroke-linejoin="round"/>
<path d="M1.75 15H5.25" stroke="#F39326" stroke-linecap="round" stroke-linejoin="round"/>
<path d="M18.7058 4.68833C19.0543 4.35636 19.2501 3.90612 19.2501 3.43666C19.2501 2.96719 19.0543 2.51695 18.7058 2.18499C18.3572 1.85303 17.8844 1.66653 17.3915 1.66653C16.8986 1.66653 16.4258 1.85303 16.0773 2.18499L11.6935 6.36166C11.4855 6.55968 11.3332 6.80444 11.2508 7.07333L10.5184 9.46499C10.4964 9.5367 10.4951 9.61271 10.5146 9.68507C10.534 9.75743 10.5736 9.82347 10.629 9.87629C10.6845 9.9291 10.7538 9.96675 10.8298 9.98529C10.9058 10.0038 10.9856 10.0026 11.0609 9.98166L13.5721 9.28416C13.8545 9.20564 14.1115 9.06062 14.3194 8.86249L18.7058 4.68833Z" stroke="#F39326" stroke-linecap="round" stroke-linejoin="round"/>
</svg>
