<svg width="21" height="20" viewBox="0 0 21 20" fill="none" xmlns="http://www.w3.org/2000/svg">
<path d="M14.6667 1.66669H6.33333C4.03214 1.66669 2.16666 3.53217 2.16666 5.83335V14.1667C2.16666 16.4679 4.03214 18.3334 6.33333 18.3334H14.6667C16.9679 18.3334 18.8333 16.4679 18.8333 14.1667V5.83335C18.8333 3.53217 16.9679 1.66669 14.6667 1.66669Z" stroke="#F39326" stroke-linecap="round" stroke-linejoin="round"/>
<path d="M13.8333 9.47501C13.9362 10.1685 13.8177 10.8769 13.4948 11.4992C13.1719 12.1215 12.661 12.6262 12.0347 12.9414C11.4084 13.2566 10.6987 13.3663 10.0065 13.255C9.31427 13.1436 8.6748 12.8167 8.17903 12.321C7.68327 11.8252 7.35645 11.1857 7.24506 10.4935C7.13367 9.8013 7.24339 9.09159 7.55861 8.46532C7.87383 7.83905 8.37849 7.32812 9.00082 7.00521C9.62316 6.68229 10.3315 6.56383 11.025 6.66667C11.7324 6.77158 12.3874 7.10123 12.8931 7.60693C13.3988 8.11263 13.7284 8.76757 13.8333 9.47501Z" stroke="#F39326" stroke-linecap="round" stroke-linejoin="round"/>
<path d="M15.0833 5.41669H15.0917" stroke="#F39326" stroke-linecap="round" stroke-linejoin="round"/>
</svg>
