<svg width="131" height="145" viewBox="0 0 131 145" fill="none" xmlns="http://www.w3.org/2000/svg">
<g clip-path="url(#clip0_797_2)">
<mask id="mask0_797_2" style="mask-type:luminance" maskUnits="userSpaceOnUse" x="0" y="0" width="131" height="145">
<path d="M130.5 0H0.5V145H130.5V0Z" fill="white"/>
</mask>
<g mask="url(#mask0_797_2)">
<path d="M28.7011 90.9299C29.1138 90.9299 29.4347 90.6077 29.4347 90.1936C29.4347 89.7794 29.1138 89.4573 28.7011 89.4573H25.0785V84.0273C24.5741 84.1193 24.0697 84.2113 23.6111 84.2113V101.1C24.2531 101.284 24.8034 101.514 25.3536 101.836H28.7011C29.1138 101.836 29.4347 101.514 29.4347 101.1C29.4347 100.685 29.1138 100.363 28.7011 100.363H25.0785V90.8838H28.7011V90.9299Z" fill="#F39325"/>
<path d="M93.6779 29.1282C93.4028 29.4043 93.4028 29.8645 93.6779 30.1406C93.953 30.4167 94.4116 30.4167 94.6867 30.1406L97.3005 27.5176C99.5933 29.8645 101.611 32.4415 103.262 35.1565L100.098 36.9972C99.7308 37.1812 99.6391 37.6414 99.8225 38.0096C100.006 38.3777 100.465 38.4697 100.832 38.2857L104.041 36.445C105.646 39.252 106.884 42.2431 107.802 45.3723L104.271 46.3387C103.904 46.4307 103.675 46.8448 103.766 47.213C103.858 47.5811 104.271 47.8112 104.638 47.7192L108.168 46.7528C108.765 49.0537 109.177 51.4466 109.361 53.8855C109.865 54.0695 110.369 54.2996 110.874 54.6217C110.232 43.9458 105.784 33.96 98.1717 26.3212C89.9178 18.0381 78.9583 13.4824 67.3111 13.4824C55.8014 13.4824 44.9795 17.9001 36.7714 25.9991C36.7714 25.9991 36.7255 25.9991 36.7255 26.0451C36.7255 26.0451 36.7255 26.0911 36.6797 26.0911C36.588 26.1831 36.4963 26.2752 36.4046 26.3672C33.7449 29.0362 31.498 31.9353 29.6638 35.1105L29.618 35.1565V35.2025C27.7379 38.4237 26.2705 41.875 25.2617 45.4643C25.2158 45.5564 25.17 45.6484 25.1241 45.7404C25.0783 45.8325 25.0783 45.9245 25.1241 46.0165C24.3904 48.8696 23.886 51.8147 23.7485 54.8058C24.2529 54.4837 24.7573 54.2536 25.2617 54.0695C25.4451 51.5846 25.8578 49.1457 26.4539 46.7988L29.8931 47.7192C30.2599 47.8112 30.6726 47.5811 30.7643 47.213C30.8561 46.8448 30.6268 46.4307 30.2599 46.3387L26.8208 45.4183C27.7379 42.3352 28.976 39.3441 30.5809 36.537L33.7449 38.3777C34.1118 38.5618 34.5245 38.4697 34.7538 38.1016C34.9372 37.7335 34.8455 37.3193 34.4786 37.0892L31.2229 35.2485C32.8737 32.5335 34.8913 29.9566 37.1841 27.6097L39.752 30.1866C40.0271 30.4627 40.4857 30.4627 40.7608 30.1866C41.0359 29.9105 41.0359 29.4504 40.7608 29.1743L38.1929 26.5973C40.5315 24.3425 43.1453 22.4097 45.8508 20.7991L47.7308 24.0664C47.9143 24.4345 48.3728 24.5265 48.7396 24.3425C49.1065 24.1584 49.1982 23.6982 49.0148 23.3301L47.1347 20.1089C49.9777 18.5443 53.0042 17.3479 56.1682 16.4735L57.1312 20.0169C57.2229 20.385 57.6356 20.6151 58.0024 20.523C58.3693 20.431 58.5986 20.0169 58.5068 19.6487L57.5439 16.1054C60.4328 15.4151 63.4134 15.047 66.4398 15.001V18.6363C66.4398 19.0505 66.7608 19.3726 67.1735 19.3726C67.5862 19.3726 67.9072 19.0505 67.9072 18.6363V15.001C70.9336 15.047 73.8684 15.4151 76.7573 16.1054L75.7943 19.6487C75.7026 20.0169 75.9319 20.431 76.2987 20.523C76.6656 20.6151 77.0783 20.385 77.17 20.0169L78.1329 16.4275C81.297 17.2558 84.3234 18.4983 87.1665 20.0169L85.2864 23.2841C85.103 23.6522 85.1947 24.0664 85.5615 24.2964C85.9284 24.4805 86.3411 24.3885 86.5703 24.0203L88.4504 20.7531C91.2017 22.3637 93.7696 24.2964 96.1541 26.5513L93.6779 29.1282Z" fill="#F39325"/>
<path d="M109.498 84.0273V89.4573H105.876C105.463 89.4573 105.142 89.7794 105.142 90.1936C105.142 90.6077 105.463 90.9299 105.876 90.9299H109.498V100.409H105.784C105.371 100.409 105.05 100.732 105.05 101.146C105.05 101.56 105.371 101.882 105.784 101.882H109.498C109.498 101.974 109.498 102.02 109.498 102.112C109.957 101.836 110.461 101.606 110.966 101.422C110.966 101.33 110.966 101.238 110.966 101.146V84.2574C110.507 84.2114 110.003 84.1653 109.498 84.0273Z" fill="#F39325"/>
<path d="M103.17 124.246C102.987 124.154 102.895 124.154 102.712 124.246C101.153 126.639 99.3641 128.894 97.3006 130.965L94.6868 128.342C94.4117 128.066 93.9532 128.066 93.678 128.342C93.4029 128.618 93.4029 129.078 93.678 129.354L96.2918 131.977C93.9073 134.232 91.3394 136.165 88.5881 137.775L86.708 134.508C86.5246 134.14 86.066 134.048 85.6992 134.232C85.3324 134.416 85.2406 134.876 85.4241 135.244L87.3041 138.512C84.4611 140.076 81.3888 141.273 78.2706 142.101L77.3077 138.512C77.2159 138.143 76.8033 137.913 76.4364 138.005C76.0696 138.097 75.8403 138.512 75.932 138.88L76.895 142.423C74.0061 143.067 71.0713 143.435 68.0449 143.527V139.892C68.0449 139.478 67.7239 139.156 67.3112 139.156C66.8985 139.156 66.5775 139.478 66.5775 139.892V143.527C63.551 143.481 60.5704 143.113 57.6816 142.423L58.6445 138.88C58.7362 138.512 58.507 138.097 58.1401 138.005C57.7733 137.913 57.3606 138.143 57.2689 138.512L56.3059 142.055C53.1419 141.227 50.1154 139.984 47.2724 138.42L49.1525 135.198C49.3359 134.83 49.2442 134.416 48.8773 134.186C48.5105 134.002 48.0978 134.094 47.8685 134.462L45.9884 137.729C43.2371 136.119 40.6692 134.186 38.3306 131.931L40.8985 129.354C41.1278 129.124 41.1736 128.71 40.9902 128.434C40.9443 128.388 40.8985 128.388 40.8068 128.342C40.6234 128.25 40.4399 128.158 40.3024 128.066C40.1189 128.066 39.9814 128.158 39.8438 128.296L37.2759 130.873C36.3588 129.952 35.4876 128.986 34.6622 127.974C34.2495 128.25 33.8368 128.526 33.4241 128.756C34.387 129.906 35.3958 131.057 36.4505 132.115C36.5422 132.207 36.6339 132.299 36.7256 132.391C36.7256 132.391 36.7256 132.437 36.7715 132.437L36.8174 132.483C45.0255 140.536 55.8473 145 67.357 145C79.0043 145 90.0096 140.444 98.2177 132.161C100.511 129.86 102.482 127.375 104.179 124.706C103.812 124.568 103.491 124.43 103.17 124.246Z" fill="#F39325"/>
<path d="M30.8562 68.5656V74.5018C31.223 74.7779 31.7274 75.008 32.3235 75.2381V67.7373C31.865 68.1975 31.3147 68.4276 30.8562 68.5656Z" fill="#F39325"/>
<path d="M102.161 55.5428C102.574 55.2207 103.033 54.8525 103.537 54.5304C102.895 45.8332 99.1807 37.7341 92.9902 31.4758C86.1119 24.5732 76.9867 20.7998 67.2653 20.7998C57.544 20.7998 48.4188 24.6193 41.5405 31.4758C35.3041 37.7341 31.5899 45.8792 30.9937 54.6685C31.544 54.9906 32.0026 55.3127 32.4153 55.6808C32.828 46.9376 36.4047 38.7465 42.5951 32.5342C49.1983 25.9077 57.9567 22.2724 67.3112 22.2724C76.6657 22.2724 85.4241 25.9077 92.0273 32.5342C98.1719 38.7465 101.749 46.8455 102.161 55.5428Z" fill="#F39325"/>
<path d="M103.675 68.5656C103.262 68.4736 102.666 68.2435 102.207 67.7373V75.1001C102.803 74.87 103.262 74.5939 103.675 74.3638V68.5656Z" fill="#F39325"/>
<path d="M102.207 84.1191V101.192C102.207 101.514 102.207 101.836 102.207 102.158C102.712 102.434 103.216 102.802 103.629 103.216C103.675 102.572 103.675 101.882 103.675 101.238V84.3952C103.216 84.3032 102.712 84.2572 102.207 84.1191Z" fill="#F39325"/>
<path d="M32.3235 84.1191C31.8191 84.2572 31.3147 84.3492 30.8562 84.3492V101.192C30.8562 102.756 30.9479 104.275 31.1313 105.793C31.5899 105.517 32.0484 105.287 32.507 105.103C32.3694 103.815 32.2777 102.48 32.2777 101.146V84.1191H32.3235Z" fill="#F39325"/>
<path d="M93.9073 123.832C93.3112 124.568 92.6692 125.259 91.9814 125.949C85.3782 132.575 76.6198 136.211 67.2653 136.211C59.3782 136.211 51.9038 133.588 45.805 128.802C45.6674 128.802 45.484 128.848 45.3006 128.848C44.7045 128.894 44.1084 128.848 43.5122 128.848C50.1154 134.554 58.4611 137.683 67.2653 137.683C76.9867 137.683 86.1119 133.864 92.9902 127.007C93.7239 126.271 94.4117 125.489 95.0995 124.706C94.6868 124.476 94.2741 124.2 93.9073 123.832Z" fill="#F39325"/>
<path d="M130.408 110.716C130.271 110.348 130.041 110.072 129.675 109.888C129.308 109.704 128.941 109.704 128.62 109.796C128.253 109.934 127.978 110.164 127.795 110.486C127.29 111.36 126.74 112.189 126.19 113.109C126.19 113.109 126.144 113.201 125.96 113.431C125.823 113.661 125.593 113.983 125.364 114.306C125.135 114.674 124.814 115.042 124.493 115.456C124.172 115.87 123.851 116.238 123.53 116.56C123.209 116.883 122.934 117.159 122.659 117.343C122.384 117.527 122.2 117.573 122.017 117.527C121.604 117.343 121.466 116.744 121.696 115.824C121.879 114.904 122.246 113.845 122.75 112.557C122.796 112.465 122.842 112.327 122.934 112.235C123.026 112.097 123.071 111.959 123.071 111.821C123.53 110.716 124.08 109.52 124.676 108.277C125.41 106.759 126.098 105.332 126.786 103.952C127.474 102.571 128.07 101.375 128.574 100.316C129.078 99.2583 129.399 98.522 129.445 98.1078C129.537 97.7397 129.445 97.3716 129.216 97.0494C129.033 96.7273 128.712 96.5433 128.345 96.4052C127.978 96.3132 127.657 96.4052 127.336 96.5893C127.061 96.8194 126.832 97.1415 126.648 97.5096C126.098 99.0282 125.41 100.546 124.585 102.019C123.805 103.446 123.071 104.872 122.384 106.299C121.65 107.725 121.008 109.152 120.412 110.624C120.228 111.084 120.045 111.545 119.907 112.005C119.724 112.327 119.541 112.649 119.311 113.017C118.853 113.799 118.394 114.536 117.936 115.318C117.431 116.054 116.927 116.698 116.468 117.205C115.964 117.711 115.505 117.987 115.138 118.033C114.863 118.033 114.634 117.895 114.588 117.573C114.542 117.251 114.496 116.837 114.542 116.422C114.542 116.008 114.634 115.594 114.726 115.18C114.817 114.766 114.909 114.536 114.955 114.398C115.184 113.799 115.964 112.557 116.239 112.051C116.422 111.729 116.606 111.038 116.468 110.67C116.331 110.302 116.239 110.072 115.826 109.842C115.459 109.612 115.047 109.704 114.726 109.842C114.451 109.934 114.084 110.21 113.854 110.486C113.671 110.716 113.442 111.13 113.075 111.637C112.846 112.005 112.479 112.557 112.158 112.971C111.883 113.385 111.516 113.845 111.103 114.398C110.69 114.95 110.232 115.502 109.773 116.054C109.269 116.606 108.81 117.159 108.352 117.573C107.893 117.987 107.481 118.309 107.114 118.539C106.747 118.723 106.472 118.723 106.288 118.539C105.967 118.217 105.83 117.757 105.83 117.159C105.83 116.606 105.967 116.008 106.197 115.364C106.426 114.72 106.655 114.121 106.976 113.615C107.251 113.063 107.526 112.649 107.756 112.327C108.535 111.268 109.361 110.348 110.232 109.52C111.103 108.737 112.066 108.047 113.167 107.449C113.304 107.403 113.534 107.265 113.854 107.127C114.13 106.989 114.634 106.805 115.093 106.805C115.826 106.805 115.964 107.219 116.652 107.403C117.156 107.541 117.615 107.311 117.844 107.035C118.119 106.759 118.119 106.621 118.165 106.253C118.211 105.838 118.027 105.332 117.752 105.01C117.523 104.78 117.248 104.55 116.927 104.412C116.606 104.274 116.239 104.182 115.964 104.09C115.047 103.906 114.313 103.952 113.442 104.182C112.525 104.458 111.653 104.872 110.828 105.378C110.003 105.884 109.223 106.483 108.535 107.081C107.847 107.725 107.205 108.369 106.655 109.014C106.151 109.658 105.601 110.394 105.096 111.222C104.913 111.36 104.775 111.545 104.683 111.729C104.225 112.649 103.72 113.477 103.216 114.26C102.62 115.088 102.07 115.87 101.428 116.652C100.786 117.435 100.098 118.079 99.2724 118.585C98.8597 118.815 98.5846 118.815 98.4011 118.585C98.2636 118.401 98.1719 118.125 98.2177 117.895C98.3094 117.159 98.5387 116.468 98.8597 115.87C99.1807 115.272 99.5475 114.628 99.9144 114.029C100.419 113.155 100.877 112.235 101.244 111.222C101.428 110.762 101.611 110.21 101.795 109.658C101.932 109.106 102.024 108.507 102.024 107.955C102.024 107.403 101.932 106.897 101.703 106.437C101.474 105.976 101.107 105.562 100.602 105.24C100.235 105.01 99.8226 104.872 99.41 104.872C98.9973 104.872 98.5846 104.872 98.1719 105.01C97.7592 105.102 97.3465 105.286 97.0255 105.47C96.6586 105.654 96.3376 105.884 96.0167 106.161C95.6957 106.529 95.5581 106.667 95.4205 106.943C95.1913 107.311 94.4576 108.323 94.2741 108.323C94.1366 108.323 94.5493 107.265 94.5493 106.989C94.5493 106.575 94.4576 106.253 94.1824 105.93C93.8615 105.792 93.4946 105.746 93.0819 105.884C92.7151 105.976 92.4399 106.253 92.2565 106.621C91.2477 109.106 90.2847 111.406 89.3676 113.615C89.2759 113.845 89.1842 114.075 89.0466 114.306L87.7168 116.883C87.4417 117.389 87.1666 117.941 86.8456 118.447C86.7539 118.631 86.6163 118.769 86.5246 118.953C86.2036 119.413 85.9285 119.69 85.6992 119.828C85.5158 119.966 85.3782 120.012 85.3324 120.012C85.1031 119.966 84.9655 119.874 84.8738 119.782C84.7821 119.69 84.7362 119.598 84.7362 119.552C84.6445 119.275 84.5987 118.953 84.6904 118.539C84.7362 118.125 84.8738 117.757 85.0572 117.389C85.1489 117.205 85.2865 116.883 85.5158 116.422C85.745 115.962 85.9743 115.502 86.2953 114.95C86.5704 114.398 86.8456 113.845 87.1666 113.293C87.4876 112.741 87.7627 112.189 88.0378 111.729C88.3129 111.268 88.5422 110.854 88.7256 110.486C88.9091 110.164 89.0008 109.98 89.0466 109.934C89.1842 109.658 89.2301 109.382 89.1842 109.106C89.1842 108.83 89.0466 108.553 88.8632 108.369C88.6798 108.185 88.4047 108.047 88.1754 108.001C87.9461 107.955 87.671 107.955 87.3958 108.001C87.029 108.093 86.708 108.139 86.3412 108.185C86.0202 108.185 85.6992 108.185 85.4699 108.139C85.2406 108.093 85.0572 107.955 84.9197 107.771C84.8279 107.587 84.8279 107.357 84.9197 106.989C85.0572 106.575 85.1031 106.207 85.1031 105.792C85.1031 105.378 85.0572 105.01 84.9655 104.596C84.8738 104.228 84.7362 103.906 84.5528 103.584C84.3694 103.307 84.186 103.031 83.9567 102.847C83.4064 102.433 82.8103 102.157 82.1683 102.157C81.5264 102.157 80.9761 102.249 80.4258 102.525C79.8756 102.801 79.417 103.169 79.0043 103.676C78.5916 104.182 78.3623 104.734 78.3165 105.332C78.1331 106.897 78.6375 108.185 79.9214 109.106C80.1048 109.244 80.4717 109.428 80.9761 109.658C81.4805 109.842 81.9391 110.026 82.4435 110.21C82.9479 110.394 83.4064 110.532 83.7733 110.624C84.1401 110.762 84.3694 110.808 84.3694 110.808C84.6904 110.854 84.9196 110.992 85.0572 111.268C85.1489 111.499 85.1948 111.775 85.0572 112.051C84.5528 113.063 84.1401 113.891 83.8191 114.628C83.4981 115.318 83.223 115.824 83.0854 116.1C83.0396 116.238 82.902 116.468 82.7644 116.79C82.6269 117.113 82.4893 117.481 82.3518 117.895C82.2142 118.309 82.1683 118.769 82.1225 119.229C82.0766 119.69 82.1683 120.15 82.3518 120.61C82.4893 120.978 82.7186 121.346 83.0854 121.714C83.4523 122.082 83.9567 122.405 84.6445 122.635C84.8738 122.727 85.1948 122.727 85.6075 122.727C86.0202 122.727 86.4329 122.589 86.9373 122.313C87.029 122.267 87.1207 122.267 87.2124 122.221C87.6251 121.99 88.0837 121.852 88.4964 121.438C89.2759 120.748 89.8262 119.782 90.3306 118.953C90.7891 118.125 91.2936 116.883 91.798 116.1C92.1189 115.548 92.6234 114.398 93.1278 113.523C93.678 112.649 93.9073 112.005 94.5951 111.176C95.3288 110.302 95.604 109.796 96.2459 109.198C97.2548 108.277 97.5757 108.277 97.9426 108.093C98.3094 107.909 98.6304 107.863 98.9055 108.001C99.3182 108.185 99.1807 108.277 99.1348 108.645C99.0431 109.29 98.8597 109.888 98.5846 110.44C98.3094 110.992 98.0343 111.591 97.7133 112.143C97.4382 112.695 97.1172 113.247 96.7962 113.799C96.4752 114.352 96.2001 114.95 95.9708 115.502C95.7415 116.1 95.5581 116.698 95.4205 117.251C95.3288 117.849 95.283 118.447 95.3747 119.091C95.4205 119.506 95.604 119.966 95.8332 120.426C96.0167 120.794 96.2459 121.07 96.5669 121.254C96.8879 121.438 97.2089 121.622 97.5757 121.714C98.2636 121.852 98.9055 121.806 99.5934 121.576C100.235 121.346 100.832 120.978 101.428 120.564C101.978 120.15 102.528 119.644 102.987 119.137C103.078 118.999 103.216 118.861 103.308 118.769C103.537 119.459 103.95 120.104 104.592 120.61C105.188 121.07 105.83 121.3 106.609 121.3C106.93 121.3 107.297 121.254 107.618 121.116C107.893 120.978 108.214 120.84 108.535 120.702C108.627 120.656 108.765 120.564 108.902 120.472C108.994 120.426 109.131 120.334 109.269 120.242C109.315 120.242 109.361 120.196 109.498 120.104C109.59 120.012 109.773 119.92 109.911 119.782C110.049 119.69 110.186 119.552 110.324 119.459C110.461 119.367 110.553 119.321 110.553 119.321C110.736 119.137 110.966 119.045 111.149 119.045C111.332 119.045 111.47 119.045 111.653 119.137C111.837 119.183 112.02 119.321 112.204 119.506C112.387 119.69 112.616 119.828 112.892 120.012C113.854 120.656 114.817 120.84 115.872 120.61C116.652 120.426 117.431 119.966 118.119 119.275C118.532 118.907 118.899 118.493 119.265 118.079C119.357 118.401 119.449 118.677 119.632 118.953C119.907 119.413 120.228 119.782 120.687 119.966C121.1 120.15 121.558 120.196 122.017 120.196C122.475 120.196 122.934 120.058 123.392 119.874C123.851 119.69 124.218 119.506 124.539 119.229C125.089 118.815 125.639 118.309 126.098 117.803C126.556 117.297 127.015 116.744 127.428 116.192C127.978 115.456 128.482 114.72 128.987 113.983C129.491 113.247 129.996 112.465 130.408 111.683C130.5 111.453 130.546 111.084 130.408 110.716ZM82.3059 106.069C82.26 106.253 82.1683 106.437 82.0308 106.575C81.8015 106.759 81.5722 106.805 81.2971 106.667C81.0678 106.529 80.9302 106.391 80.9302 106.161C80.9302 105.792 80.9761 105.424 81.1595 105.148C81.3429 104.964 81.5722 104.872 81.8015 104.964C82.0308 105.01 82.2142 105.194 82.26 105.47C82.3518 105.7 82.3517 105.884 82.3059 106.069Z" fill="#F39325"/>
<path d="M80.3341 110.533C79.9673 110.349 79.6004 110.349 79.2336 110.441C78.8667 110.579 78.5916 110.809 78.4082 111.177C78.0872 111.73 77.8579 112.604 77.3535 113.708C76.6657 115.227 75.8861 116.377 75.5193 116.884C75.0608 117.574 74.6022 118.218 74.1436 118.678C73.6851 119.138 73.2724 119.645 72.8597 120.105C72.6763 120.243 72.5387 120.243 72.447 120.105C72.3553 119.967 72.3094 119.737 72.3553 119.46C72.4928 118.126 72.8597 116.884 73.41 115.733C73.9144 114.537 74.4646 113.432 74.969 112.328C75.2442 111.73 75.5652 111.131 75.8861 110.533C76.1613 109.935 76.5281 109.383 76.895 108.831C77.0784 108.554 77.1242 108.278 77.0325 107.91C76.9408 107.588 76.8032 107.312 76.574 107.128C76.253 106.852 75.932 106.76 75.5193 106.76C75.3359 106.76 75.1983 106.806 75.0149 106.898C74.8773 106.944 74.6939 107.082 74.6022 107.22C73.3641 108.969 72.0343 110.717 70.6586 112.466C69.283 114.169 67.8615 115.825 66.3482 117.436C65.7063 118.126 65.0184 118.77 64.2847 119.414C64.0555 119.599 63.8262 119.783 63.5969 119.967C63.4135 120.151 63.1383 120.335 62.8632 120.473C62.3588 120.795 62.1295 120.611 62.2212 119.967C62.2671 119.783 62.3129 119.599 62.3588 119.414C62.4047 119.23 62.4505 119.046 62.5422 118.862C62.7257 118.31 62.9549 117.758 63.2301 117.252C63.5052 116.745 63.7803 116.239 64.1013 115.779C64.835 114.675 65.477 113.616 66.0731 112.604C66.6234 111.592 67.1736 110.671 67.7697 109.751C67.9073 109.475 68.0449 109.153 68.1824 108.785C68.2742 108.462 68.2741 108.094 68.2283 107.726C68.1824 107.542 68.1366 107.358 68.0907 107.174C68.0449 107.036 67.9073 106.852 67.7697 106.714C67.4488 106.438 67.1278 106.346 66.7151 106.346C66.3482 106.346 66.0272 106.53 65.7521 106.806C65.6604 106.944 65.5228 107.082 65.477 107.312C65.3853 107.496 65.3853 107.68 65.4311 107.864C65.4311 108.186 65.3394 108.462 65.156 108.739C65.0184 109.015 64.835 109.291 64.6516 109.475C63.7345 110.855 62.8632 112.144 62.1295 113.34C61.9461 113.616 61.8085 113.846 61.671 114.123C61.5793 114.215 61.4876 114.353 61.3958 114.491C60.708 115.641 60.1119 116.653 59.5616 117.666C59.0114 118.678 58.4152 119.553 57.8191 120.381C57.6357 120.657 57.3606 120.887 57.0396 121.071C56.7186 121.209 56.3976 121.255 56.1225 121.255C55.8473 121.209 55.6181 121.071 55.4346 120.795C55.2512 120.565 55.2054 120.151 55.2971 119.599C55.3429 119.368 55.3429 119.138 55.3888 118.954C55.3888 118.77 55.4346 118.632 55.4805 118.448C55.5264 118.31 55.5722 118.126 55.6181 117.988C55.6639 117.85 55.7098 117.62 55.8015 117.344C56.0766 116.607 56.3518 115.917 56.7186 115.227C57.0396 114.537 57.4064 113.846 57.7274 113.156C58.0484 112.558 58.4152 111.914 58.7362 111.315C59.0572 110.717 59.3782 110.073 59.6992 109.429C59.9285 108.923 60.2495 108.508 60.6163 108.186C60.9373 107.864 61.3958 107.588 61.8544 107.358C62.1295 107.22 62.4047 107.128 62.6339 107.036C62.8174 106.99 63.1842 106.806 63.6886 106.576C63.9637 106.438 64.193 106.208 64.3306 105.885C64.4682 105.563 64.514 105.241 64.4682 104.919C64.4223 104.643 64.2389 104.367 64.0096 104.183C63.7345 103.999 63.4593 103.907 63.1384 103.953C62.7715 103.999 62.5881 103.953 62.4964 103.907C62.4505 103.815 62.4505 103.631 62.5422 103.308C62.5881 103.17 62.6339 103.032 62.6798 102.894C62.7257 102.756 62.7715 102.664 62.8174 102.526C62.9091 102.158 62.8174 101.79 62.6339 101.468C62.4047 101.146 62.0837 100.916 61.7168 100.824C61.3041 100.732 60.9373 100.778 60.6163 101.008C60.2953 101.238 60.066 101.514 60.0202 101.928C59.9743 102.158 59.9285 102.388 59.7909 102.664C59.6992 102.894 59.6075 103.124 59.5158 103.354C59.3323 103.769 59.1489 104.137 58.9197 104.413C58.7362 104.689 58.4152 104.919 58.0943 105.011C57.8191 105.103 57.4523 105.195 57.0396 105.333C56.6269 105.471 56.3059 105.655 55.9849 105.977C55.7098 106.254 55.6181 106.622 55.6181 107.036C55.6181 107.45 55.8015 107.772 56.0766 108.048C56.26 108.186 56.3976 108.232 56.581 108.232C56.7186 108.232 56.8562 108.232 56.9479 108.232C57.0396 108.232 57.0396 108.37 56.9479 108.554C56.902 108.738 56.7186 109.107 56.3976 109.659C55.5722 111.177 54.7927 112.742 54.0131 114.307C53.8756 114.583 53.738 114.859 53.6463 115.135C53.5546 115.227 53.5087 115.319 53.4629 115.411C53.3712 115.549 53.1419 115.825 52.8667 116.193C52.5916 116.561 52.2706 116.93 51.9038 117.39C51.5369 117.804 51.1242 118.31 50.7115 118.77C50.253 119.23 49.7944 119.691 49.3817 120.105C49.1066 120.381 48.6939 120.703 48.1895 121.071C47.6851 121.439 47.089 121.761 46.5387 122.037C45.9426 122.268 45.3923 122.452 44.7962 122.544C44.2459 122.636 43.7874 122.544 43.4205 122.268C43.0995 122.037 42.8703 121.715 42.7786 121.347C42.6868 120.933 42.641 120.565 42.6868 120.105C42.7327 119.691 42.7786 119.276 42.9161 118.862C43.0537 118.448 43.1454 118.08 43.283 117.758C43.5581 116.976 43.9249 116.193 44.3835 115.319C44.842 114.445 45.3465 113.708 45.8509 113.018C46.0801 112.742 46.3094 112.466 46.5387 112.19C46.8138 111.868 47.089 111.592 47.41 111.407C47.9144 110.993 48.3729 110.901 48.7398 111.039C49.1525 111.223 49.4276 111.454 49.5652 111.684C49.6569 111.914 49.7027 112.19 49.7027 112.42C49.7027 112.604 49.6569 112.834 49.5652 113.064C49.4734 113.294 49.3359 113.524 49.1525 113.8C49.0607 113.938 48.969 114.123 48.969 114.353C48.969 114.537 48.969 114.721 49.0607 114.905C49.1983 115.273 49.4276 115.549 49.7486 115.733C50.0696 115.871 50.4364 115.917 50.8491 115.825C51.0325 115.779 51.1701 115.687 51.2618 115.549C51.3535 115.411 51.4911 115.273 51.6286 115.089C51.9496 114.629 52.1789 114.076 52.3165 113.524C52.454 112.926 52.4999 112.328 52.4999 111.868C52.454 111.315 52.2706 110.809 51.9955 110.303C51.7204 109.843 51.3535 109.429 50.895 109.061C50.4364 108.739 49.9779 108.508 49.4734 108.37C48.969 108.232 48.4188 108.186 47.9144 108.278C46.9055 108.462 46.0343 108.877 45.3006 109.475C45.0713 109.659 44.8879 109.843 44.6586 110.073C44.5669 110.119 44.4752 110.211 44.3835 110.303C43.7874 110.993 43.0995 111.592 42.2741 112.052C41.4946 112.558 40.7151 112.972 39.9355 113.294C39.5687 113.432 39.2935 113.386 39.2018 113.11C39.1101 112.834 38.9726 112.512 38.835 112.19C38.6974 111.638 38.4682 111.131 38.2389 110.671C38.0096 110.165 37.7345 109.751 37.4135 109.383C37.0925 109.015 36.6798 108.738 36.2671 108.554C35.8085 108.37 35.2583 108.278 34.6622 108.324C33.8368 108.416 33.1031 108.785 32.4152 109.521C31.3606 110.165 30.4435 110.947 29.6639 111.776C28.8844 112.65 28.1965 113.57 27.6004 114.537C27.2794 115.089 26.9585 115.641 26.7292 116.239C26.4082 116.792 25.9038 117.712 25.7204 118.08C25.1701 119.23 24.8032 119.46 24.1613 120.473C23.4276 121.531 22.3271 122.958 21.5475 123.924C20.7221 124.891 19.8509 125.719 18.8421 126.409C18.3376 126.685 17.9708 126.685 17.7415 126.409C17.5581 126.133 17.4664 125.811 17.5122 125.489C17.6498 124.522 18.8421 122.406 19.3006 121.623C19.7133 120.841 20.1719 120.059 20.6304 119.276C21.2724 118.126 23.932 113.662 24.4364 112.466C24.6657 111.868 24.9408 111.177 25.1242 110.441C25.3077 109.705 25.4452 109.015 25.4452 108.278C25.4452 107.588 25.3077 106.898 25.0325 106.346C24.7574 105.747 24.2988 105.241 23.611 104.873C23.1525 104.597 22.648 104.413 22.0978 104.413C21.5934 104.413 21.0431 104.459 20.5387 104.597C20.0343 104.735 19.5299 104.919 19.0713 105.195C18.6128 105.425 18.2918 105.609 17.9708 105.931C17.5581 106.346 16.7327 107.22 16.3659 107.818C15.7697 108.785 15.357 109.475 15.1736 109.475C14.8985 109.475 15.4946 108.554 15.7697 107.45C15.999 106.576 15.9073 106.116 15.3112 105.747C14.9902 105.517 14.4399 105.517 14.1189 105.609C13.6145 105.747 13.2935 106.07 13.0643 106.53C11.6428 110.625 10.3588 114.353 6.36942 121.761C4.9479 124.384 3.93908 126.455 2.15072 129.446C0.958482 131.149 0.362362 132.391 0.499929 133.312C0.545784 133.818 0.958482 134.14 1.37118 134.37C1.82973 134.6 2.28829 134.6 2.74684 134.416C3.15954 134.278 3.38882 134.094 3.84737 133.45C4.48935 132.437 4.99375 131.471 5.58987 130.459C6.18599 129.446 7.69922 126.915 8.84561 124.752C10.3588 122.314 11.4593 120.473 11.9637 119.553C13.1101 117.528 14.3024 115.411 15.1278 114.399C16.641 112.42 17.604 111.039 18.2459 110.119C18.8879 109.245 19.484 108.923 19.8967 108.692C20.2636 108.462 20.6763 108.324 21.0431 108.324C21.41 108.324 21.5475 108.554 21.5017 109.015C21.41 109.843 21.1807 110.579 20.8138 111.315C20.447 112.052 20.0801 112.742 19.7133 113.478C19.3465 114.169 17.8332 116.515 17.4205 117.252C17.0078 117.988 15.4946 120.289 14.9443 121.301C14.1648 122.682 13.8897 123.878 13.7521 124.614C13.6145 125.351 13.6145 126.133 13.7062 126.915C13.7521 127.467 13.9814 128.02 14.3024 128.618C14.4858 129.032 14.8068 129.4 15.2195 129.676C15.6322 129.906 16.0449 130.136 16.5034 130.275C17.3747 130.459 18.2459 130.413 19.0255 130.09C19.8509 129.768 20.5846 129.308 21.3182 128.756C22.0519 128.204 23.611 126.271 24.253 125.627C24.8491 124.937 25.3994 124.338 25.8579 123.74C26.0872 124.338 26.454 124.798 26.9126 125.213C27.6004 125.811 28.38 126.133 29.3429 126.133C29.8473 126.133 30.3976 126.041 30.8562 125.811C31.3606 125.627 31.8191 125.351 32.2318 125.029C32.6445 124.706 33.0572 124.384 33.4699 124.016C33.8826 123.648 34.2495 123.28 34.5704 122.912C35.35 122.037 35.9461 121.255 36.4505 120.519C36.9549 119.783 37.3676 119.046 37.6428 118.31C37.872 117.804 38.1013 117.344 38.3764 117.022C38.6516 116.699 39.0643 116.423 39.5687 116.239C39.8897 116.147 40.2107 116.009 40.4858 115.917C40.3941 116.101 40.3482 116.331 40.2565 116.515C39.9355 117.436 39.7062 118.31 39.5687 119.276C39.477 120.197 39.477 121.117 39.5687 122.037C39.7521 122.866 40.2107 123.556 40.8068 124.108C41.5405 124.798 42.3659 125.213 43.3747 125.259C44.3376 125.351 45.2547 125.259 46.126 125.029C47.089 124.752 48.0061 124.338 48.8315 123.786C49.6569 123.234 50.4364 122.636 51.1242 121.991C51.4452 121.715 51.7662 121.439 52.0413 121.163C52.0872 121.807 52.2706 122.36 52.5916 122.774C53.1419 123.602 53.8756 124.062 54.7927 124.246C55.7098 124.384 56.6727 124.246 57.6816 123.832C58.4152 123.51 59.0114 123.05 59.5616 122.406C59.6992 122.636 59.8368 122.866 59.9743 123.05C60.2036 123.326 60.5246 123.51 60.8914 123.648C61.2583 123.74 61.6251 123.786 61.992 123.74C62.5881 123.694 63.1383 123.464 63.6886 123.142C64.2389 122.82 64.7433 122.452 65.156 122.083C65.7521 121.623 66.3024 121.117 66.8526 120.565C67.357 120.013 67.9532 119.46 68.4576 118.954C68.7327 118.678 68.962 118.54 69.1454 118.494C69.3288 118.494 69.4205 118.632 69.3747 119.046C69.283 119.645 69.2371 120.243 69.283 120.795C69.283 121.347 69.4664 121.899 69.7415 122.36C70.0625 122.866 70.5211 123.188 71.0713 123.326C71.6216 123.464 72.1719 123.418 72.7221 123.28C73.2724 123.142 73.7309 122.866 74.1895 122.544C74.648 122.222 75.0607 121.853 75.4276 121.439C75.7944 121.025 76.1613 120.611 76.4823 120.151C76.8033 119.737 77.1242 119.322 77.3994 118.908C77.8579 118.218 79.0043 116.285 79.417 115.595C79.8297 114.951 80.5175 113.202 80.8385 112.374C81.0219 112.006 81.0678 111.638 80.9302 111.269C80.9302 110.947 80.701 110.717 80.3341 110.533ZM34.708 118.172C34.3412 118.908 33.8368 119.599 33.2865 120.289C32.6904 120.933 32.1401 121.531 31.4981 122.083C31.2689 122.268 30.9937 122.452 30.6727 122.682C30.3518 122.912 29.9849 123.05 29.6639 123.142C29.3429 123.234 29.0219 123.188 28.7468 123.096C28.5175 122.958 28.3341 122.636 28.2883 122.129C28.2424 121.531 28.2424 120.887 28.2883 120.289C28.3341 119.645 28.4717 119 28.6551 118.402C28.7927 117.804 29.0678 117.206 29.3429 116.653C29.6181 116.101 29.9849 115.595 30.3517 115.181C30.8562 114.491 31.3606 114.445 31.865 114.997C32.2318 115.319 32.5987 115.641 32.9655 115.917C33.3324 116.193 33.745 116.423 34.2036 116.607C34.5246 116.791 34.7539 117.022 34.7997 117.344C34.8914 117.574 34.8456 117.896 34.708 118.172ZM35.7168 113.708C35.5793 113.938 35.3041 113.938 34.7997 113.754C34.6622 113.708 34.5246 113.662 34.4329 113.524C34.3412 113.432 34.2495 113.34 34.1577 113.248C33.8826 113.064 33.7909 112.742 33.8368 112.328C33.8826 111.914 34.1119 111.638 34.5246 111.5C35.0749 111.361 35.4417 111.407 35.6251 111.73C35.8085 112.052 35.9003 112.466 35.9461 112.926C35.9461 113.248 35.8544 113.478 35.7168 113.708Z" fill="#F39325"/>
<path d="M120.137 72.8448C121.191 71.5103 120.916 69.7617 120.458 68.6573C123.438 65.6201 122.613 62.9511 122.063 61.8927C121.329 60.4202 119.907 60.0521 119.036 59.914C118.899 58.4875 118.348 57.3831 117.385 56.5548C115.78 55.1742 113.625 55.1742 112.754 55.2203C108.398 51.4929 104.041 52.8734 101.336 55.4503C99.6392 57.0609 99.6392 59.1777 99.7768 60.1441C99.6392 60.2361 99.5017 60.3742 99.3641 60.5582C98.8597 61.2485 98.5846 62.1228 98.5387 63.2272C98.4929 66.2644 100.832 67.1387 102.116 67.1847C102.391 67.1847 102.62 67.0467 102.758 66.8166C103.445 65.6661 103.996 65.8502 104.179 65.8962C105.234 66.2184 106.288 68.1511 106.243 69.2555C106.151 71.0502 104.638 72.8908 103.262 73.8572C102.482 74.4094 101.107 74.8696 99.5475 75.4218C98.0343 75.974 96.2918 76.5722 94.5034 77.4005C90.514 79.2872 88.6798 83.4288 88.5881 83.5668C88.4505 83.8429 88.5422 84.211 88.7715 84.3951C88.9091 84.4872 89.0925 84.5792 89.2301 84.5792C89.3676 84.5792 89.5052 84.5332 89.6428 84.4411C94.5034 81.2199 96.9796 81.266 97.5299 81.312C100.511 83.5668 103.445 82.6925 104.867 81.7261C109.636 83.7509 112.616 82.0943 113.625 81.358C115.735 82.0943 119.541 82.4164 121.237 79.1031C122.934 75.8819 121.237 73.8112 120.137 72.8448ZM119.953 78.5049C118.257 81.7721 113.946 80.0235 113.763 79.9315C113.488 79.8394 113.167 79.8854 112.983 80.0695C112.892 80.1615 110.186 82.6925 105.096 80.2996C104.821 80.1615 104.546 80.2076 104.317 80.3916C104.317 80.3916 103.629 80.9438 102.528 81.2199C101.061 81.5881 99.6392 81.1739 98.2636 80.1155C98.1719 80.0695 98.126 80.0235 98.0343 79.9775C97.8967 79.9315 97.1172 79.7474 95.6498 80.0695C94.4117 80.3456 92.9902 80.8978 91.477 81.6801C92.3482 80.6217 93.5405 79.4253 95.0996 78.689C96.8421 77.8607 98.5387 77.2625 100.006 76.7563C101.749 76.1581 103.124 75.6519 104.087 75.0076C105.784 73.8112 107.572 71.5563 107.664 69.2555C107.71 67.7369 106.426 64.9759 104.546 64.4237C104.362 64.3777 104.133 64.3317 103.858 64.3317C103.216 64.3317 102.437 64.6078 101.703 65.6201C101.474 65.5741 101.198 65.4821 100.923 65.298C100.235 64.8839 99.9144 64.1936 99.9144 63.1812C99.9144 61.5706 100.648 61.1565 100.74 61.1105C101.107 60.9724 101.244 60.6503 101.153 60.2821C101.153 60.1901 100.648 57.9813 102.253 56.4627C106.609 52.2752 110.736 55.4043 111.929 56.4627C112.066 56.6008 112.295 56.6928 112.525 56.6468C112.571 56.6468 114.909 56.3707 116.377 57.6131C117.019 58.1654 117.431 58.9937 117.523 60.0981L117.477 60.1441C117.248 60.4202 117.064 60.4202 117.019 60.4662C116.698 60.4662 116.331 60.1901 116.239 60.0981C115.964 59.822 115.505 59.822 115.23 60.0981C114.955 60.3742 114.955 60.8344 115.23 61.1105C115.322 61.2025 116.056 61.8927 117.019 61.8927C117.064 61.8927 117.11 61.8927 117.156 61.8927C117.523 61.8927 118.027 61.7547 118.486 61.2485C118.853 61.2485 120.228 61.3405 120.779 62.4449C121.283 63.4113 121.742 65.4361 119.082 67.875C118.853 68.1051 118.761 68.4732 118.944 68.7953C118.944 68.7953 119.311 69.4396 119.403 70.1758C119.541 71.0502 119.265 71.7404 118.623 72.2466H118.578C117.431 72.9829 116.468 72.2926 116.422 72.2926C116.239 72.1546 116.056 72.1085 115.872 72.1546C115.689 72.2006 115.505 72.2926 115.414 72.4767C115.001 73.1209 114.496 73.4891 113.946 73.5811C112.8 73.7652 111.608 72.8908 111.608 72.8908C111.287 72.6607 110.828 72.7068 110.599 73.0289C110.37 73.351 110.415 73.8112 110.736 74.0413C110.782 74.0873 112.066 75.0536 113.625 75.0536C113.809 75.0536 113.992 75.0536 114.221 75.0076C115.001 74.8696 115.735 74.4554 116.285 73.8112C116.927 74.0413 117.936 74.2713 119.082 73.7191C119.724 74.3174 121.375 75.8359 119.953 78.5049Z" fill="#F39325"/>
<path d="M111.195 63.918C111.608 64.4702 112.387 65.0684 113.442 65.0684C113.763 65.0684 114.13 65.0224 114.542 64.8844C114.909 64.7463 115.138 64.3322 115.001 63.964C114.863 63.5959 114.451 63.3658 114.084 63.5039C112.846 63.918 112.341 62.9977 112.25 62.8136C112.112 62.4915 111.745 62.3074 111.424 62.3994C110.736 62.5835 110.186 62.5375 109.865 62.3074C109.407 61.9393 109.269 61.249 109.269 60.9729C109.269 60.5588 108.902 60.2366 108.535 60.2827C108.123 60.2827 107.802 60.6048 107.802 61.0189C107.802 61.203 107.847 62.6295 108.948 63.5039C109.498 63.918 110.278 64.0561 111.195 63.918Z" fill="#F39325"/>
<path d="M45.9426 83.6132C45.8509 83.4292 44.0167 79.2876 40.0272 77.4469C38.193 76.6186 36.4964 75.9744 34.9831 75.4682C33.3782 74.916 32.0484 74.4098 31.2689 73.9036C29.8932 72.9373 28.38 71.0966 28.2883 69.3019C28.2424 68.1975 29.3429 66.2648 30.3518 65.9427C30.5352 65.8966 31.0854 65.7126 31.7733 66.863C31.9108 67.0931 32.1401 67.2311 32.4152 67.2311C33.6992 67.1851 36.0378 66.3108 35.992 63.2737C35.992 61.525 35.2583 60.6047 34.7539 60.1905C34.8456 59.2242 34.8456 57.1074 33.1948 55.4968C32.4152 54.7145 30.7186 53.426 28.4717 53.0579C26.1331 52.6897 23.932 53.426 21.7768 55.2667C20.9514 55.2207 18.7503 55.2667 17.1454 56.6012C16.2283 57.4295 15.6322 58.5339 15.4946 59.9604C14.6234 60.0525 13.2018 60.4666 12.4682 61.9392C11.9179 62.9976 11.0925 65.6666 14.0731 68.7037C13.6145 69.8081 13.2935 71.5567 14.3941 72.8912C13.2935 73.8116 11.5969 75.9284 13.2935 79.1956C15.0361 82.5548 18.842 82.1867 20.9055 81.4504C21.9144 82.1867 24.895 83.8893 29.6639 81.8186C31.0854 82.7849 34.0202 83.6593 37.0008 81.4044C37.2301 81.3584 37.8262 81.3584 38.7891 81.5885C39.9814 81.8646 41.999 82.6009 44.8879 84.5336C45.0255 84.6256 45.163 84.6716 45.3006 84.6716C45.484 84.6716 45.6216 84.6256 45.7592 84.4876C45.9884 84.2575 46.0801 83.9354 45.9426 83.6132ZM38.8809 80.1159C38.193 79.9779 37.6886 79.9319 37.3218 79.9319C36.8174 79.9319 36.5881 79.9779 36.4964 80.0239C36.4047 80.0699 36.313 80.1159 36.2671 80.162C33.0572 82.7389 30.3518 80.5301 30.26 80.4381C30.0308 80.254 29.7556 80.208 29.4805 80.346C24.3447 82.6929 21.6851 80.208 21.5934 80.1159C21.3641 79.8859 21.089 79.8398 20.8138 79.9779C20.6304 80.0699 16.32 81.8186 14.6234 78.5514C13.2477 75.8824 14.8526 74.3638 15.6322 73.8116C16.7786 74.3638 17.7874 74.1797 18.4293 73.9036C19.0255 74.5939 19.7133 74.962 20.4928 75.1001C20.6763 75.1461 20.9055 75.1461 21.089 75.1461C22.648 75.1461 23.932 74.1797 23.9779 74.1337C24.2988 73.9036 24.3447 73.4434 24.1154 73.1213C23.8861 72.7992 23.4276 72.7532 23.1066 72.9833C23.1066 72.9833 21.9144 73.8576 20.768 73.6735C20.1719 73.5815 19.7133 73.2134 19.3006 72.5691C19.2089 72.3851 19.0255 72.293 18.842 72.247C18.6586 72.201 18.4293 72.247 18.2918 72.3851C18.2459 72.4311 17.283 73.0753 16.1366 72.339H16.0907C14.5316 71.1426 15.7239 68.9798 15.7697 68.8878C15.9532 68.6117 15.9073 68.1975 15.6322 67.9674C13.0184 65.5745 13.4311 63.5498 13.9355 62.5374C14.4858 61.387 15.8614 61.3409 16.2283 61.3409C16.6868 61.8471 17.1913 61.9392 17.5581 61.9852C17.604 61.9852 17.6498 61.9852 17.6957 61.9852C18.6586 61.9852 19.3923 61.2489 19.484 61.2029C19.7592 60.9268 19.7592 60.4666 19.484 60.1905C19.2089 59.9144 18.7503 59.9144 18.4752 60.1905C18.3835 60.2826 18.0167 60.6047 17.6957 60.5587C17.6498 60.5587 17.4664 60.5587 17.2371 60.2365C17.2371 60.1905 17.1913 60.1905 17.1913 60.1905C17.283 59.1321 17.6957 58.3038 18.3376 57.7056C19.805 56.4631 22.1436 56.7392 22.1895 56.7392C22.4188 56.7853 22.6022 56.6932 22.7856 56.5552C23.9779 55.4968 28.1048 52.3676 32.4611 56.5552C34.066 58.0737 33.5616 60.2826 33.5616 60.3746C33.4699 60.7427 33.6533 61.1109 33.9743 61.2029C34.066 61.2489 34.7997 61.7091 34.7997 63.2737C34.7997 64.286 34.4787 64.9763 33.7909 65.3905C33.5158 65.5745 33.2406 65.6666 33.0114 65.7126C31.9567 64.286 30.8103 64.3321 30.2142 64.5621C28.3341 65.1144 27.0502 67.8754 27.096 69.3939C27.1877 71.6948 28.9761 73.9496 30.6727 75.1461C31.5898 75.7903 33.0114 76.2965 34.7539 76.8947C36.2212 77.4009 37.9179 77.9992 39.6604 78.8275C41.2195 79.5637 42.4576 80.7142 43.283 81.8186C41.5405 80.9442 40.1648 80.392 38.8809 80.1159Z" fill="#F39325"/>
<path d="M26.0872 60.2363C25.6745 60.2363 25.3535 60.5584 25.3535 60.9266C25.3535 61.2027 25.2159 61.8929 24.7574 62.2611C24.3905 62.5372 23.8861 62.5372 23.1983 62.3531C22.8773 62.2611 22.5105 62.4452 22.3729 62.7213C22.2812 62.9053 21.7309 63.8717 20.5387 63.4115C20.1719 63.2735 19.7592 63.4575 19.6216 63.8717C19.484 64.2398 19.6674 64.654 20.0801 64.792C20.4928 64.9301 20.8597 64.9761 21.1807 64.9761C22.2353 64.9761 22.969 64.3779 23.4276 63.8257C24.3447 63.9637 25.1242 63.8257 25.7204 63.3655C26.8209 62.5372 26.8667 61.0646 26.8667 60.8806C26.8209 60.6045 26.4999 60.2823 26.0872 60.2363Z" fill="#F39325"/>
<path d="M81.5722 51.125H53.2336C51.3535 51.125 49.7944 52.6436 49.7944 54.5763C49.7944 56.463 51.3077 58.0276 53.2336 58.0276H67.7697L70.7503 59.6842H55.6181V61.2028C55.6181 63.6417 57.5898 65.5744 59.9743 65.5744H74.7856C77.2159 65.5744 79.1419 63.5957 79.1419 61.2028V59.6842H76.574L77.6745 58.0276H81.5722C83.4523 58.0276 85.0114 56.509 85.0114 54.5763C85.0114 52.6436 83.4523 51.125 81.5722 51.125ZM77.6745 61.1568C77.6745 62.7674 76.3905 64.0558 74.7856 64.0558H60.066C58.4611 64.0558 57.1771 62.7674 57.1771 61.1568V61.1108L77.6745 61.1568ZM53.2336 56.509C52.133 56.509 51.2618 55.6347 51.2618 54.5303C51.2618 53.4259 52.133 52.5516 53.2336 52.5516H58.0942L59.9285 53.5639L65.2018 56.509H53.2336ZM61.3041 52.6896H79.417L75.29 58.9479C74.8773 59.5922 74.0519 59.7763 73.3641 59.4081L70.7962 57.9816L61.3041 52.6896ZM81.5722 56.509H78.6375L80.7927 53.2418L81.2512 52.5516H81.5722C82.6727 52.5516 83.544 53.4259 83.544 54.5303C83.544 55.6347 82.6727 56.509 81.5722 56.509Z" fill="#F39325"/>
<path d="M75.2441 49.5598H59.6074C57.4522 49.5598 55.7097 47.8112 55.7097 45.6484C55.7097 40.2184 60.983 35.8467 67.4486 35.8467C73.9143 35.8467 79.1876 40.2644 79.1876 45.6484C79.1418 47.8112 77.3993 49.5598 75.2441 49.5598ZM67.4028 37.3193C61.7626 37.3193 57.1312 41.0467 57.1312 45.6484C57.1312 46.9829 58.2317 48.0873 59.5615 48.0873H75.2441C76.5739 48.0873 77.6744 46.9829 77.6744 45.6484C77.6744 41.0467 73.0889 37.3193 67.4028 37.3193Z" fill="#F39325"/>
<path d="M88.8173 97.4642L71.9425 68.1513C71.7591 67.7832 71.3005 67.6911 70.9337 67.8752C70.5668 68.0593 70.4751 68.5194 70.6585 68.8876L84.3234 92.6784C84.2776 92.6784 84.2776 92.7244 84.2317 92.7244C79.5086 96.958 72.3552 96.958 67.6321 92.7244C63.0465 88.6289 56.3975 88.0767 51.2617 91.1138L64.0554 68.8876C64.2388 68.5194 64.1471 68.1053 63.7802 67.8752C63.4134 67.6911 63.0007 67.7832 62.7714 68.1513L45.8966 97.4642C45.7132 97.8324 45.8049 98.2465 46.1718 98.4766C46.3093 98.5226 46.401 98.5686 46.5386 98.5686C46.7679 98.5686 47.043 98.4306 47.1806 98.2005L49.6109 94.0129C49.7485 94.0129 49.9319 93.9669 50.0236 93.8289C54.7467 89.5953 61.9002 89.5953 66.6233 93.8289C69.2829 96.1757 72.5845 97.3722 75.886 97.3722C79.1418 97.3722 82.3975 96.2218 85.0113 93.9669L87.4416 98.2005C87.5792 98.4306 87.8084 98.5686 88.0836 98.5686C88.2211 98.5686 88.3129 98.5226 88.4504 98.4766C88.909 98.2925 89.0465 97.8324 88.8173 97.4642Z" fill="#F39325"/>
<path d="M66.5316 78.4589C65.2018 78.4589 64.1013 77.3545 64.1013 76.02C64.1013 74.6855 65.2018 73.5811 66.5316 73.5811C67.8615 73.5811 68.962 74.6855 68.962 76.02C68.962 77.3545 67.9073 78.4589 66.5316 78.4589ZM66.5316 75.0537C65.9814 75.0537 65.5228 75.5138 65.5228 76.066C65.5228 76.6182 65.9814 77.0784 66.5316 77.0784C67.0819 77.0784 67.5405 76.6182 67.5405 76.066C67.5405 75.5138 67.0819 75.0537 66.5316 75.0537Z" fill="#F39325"/>
<path d="M73.364 89.6407C71.7132 89.6407 70.3376 88.2602 70.3376 86.6036C70.3376 84.9469 71.7132 83.5664 73.364 83.5664C75.0148 83.5664 76.3905 84.9469 76.3905 86.6036C76.3905 88.3062 75.0607 89.6407 73.364 89.6407ZM73.364 85.039C72.4928 85.039 71.8049 85.7292 71.8049 86.6036C71.8049 87.4779 72.4928 88.1681 73.364 88.1681C74.2353 88.1681 74.9231 87.4779 74.9231 86.6036C74.9689 85.7292 74.2353 85.039 73.364 85.039Z" fill="#F39325"/>
</g>
<path d="M109.859 34.7829C109.597 34.297 109.441 33.8132 109.39 33.3315C109.344 32.8569 109.441 32.4047 109.682 31.975C109.927 31.5523 110.352 31.1778 110.958 30.8515L113.757 29.3433C114.363 29.017 114.909 28.8678 115.397 28.8959C115.889 28.931 116.32 29.0986 116.69 29.3987C117.065 29.7059 117.383 30.1024 117.645 30.5884C117.907 31.0744 118.063 31.5582 118.113 32.0399C118.164 32.5215 118.066 32.9737 117.822 33.3964C117.581 33.8261 117.157 34.2041 116.552 34.5304L113.752 36.0386C113.146 36.3649 112.598 36.5105 112.106 36.4754C111.619 36.4473 111.188 36.2797 110.813 35.9726C110.439 35.6655 110.121 35.2689 109.859 34.7829ZM111.295 34.0089C111.455 34.3047 111.665 34.4916 111.925 34.5696C112.185 34.6475 112.498 34.5879 112.864 34.3906L115.664 32.8824C116.03 32.6851 116.252 32.4564 116.33 32.1963C116.408 31.9362 116.367 31.6582 116.208 31.3624C116.049 31.0666 115.839 30.8797 115.579 30.8018C115.322 30.7308 115.011 30.794 114.645 30.9913L111.845 32.4995C111.479 32.6968 111.255 32.922 111.173 33.1751C111.095 33.4352 111.136 33.7131 111.295 34.0089Z" fill="#F39325"/>
<path d="M106.982 30.082C106.91 29.986 106.859 29.8788 106.831 29.7604C106.813 29.6436 106.836 29.5212 106.9 29.3932L108.467 26.1628L107.992 25.5292L105.679 27.2644C105.525 27.3796 105.35 27.386 105.153 27.2836C104.961 27.1876 104.795 27.0468 104.656 26.8612C104.517 26.6756 104.426 26.474 104.383 26.2564C104.344 26.0452 104.402 25.882 104.555 25.7668L110.661 21.1877C110.783 21.0965 110.919 21.0589 111.071 21.0749C111.223 21.0909 111.352 21.1693 111.458 21.3101L112.948 23.2973C113.279 23.7389 113.513 24.1837 113.649 24.6317C113.796 25.0813 113.799 25.5245 113.656 25.9613C113.52 26.3933 113.19 26.8061 112.665 27.1997C112.307 27.4685 111.958 27.6501 111.619 27.7445C111.291 27.8405 110.976 27.8613 110.675 27.8069C110.379 27.7589 110.103 27.6565 109.845 27.4997L108.602 30.262C108.591 30.3004 108.571 30.3348 108.544 30.3652C108.517 30.3956 108.491 30.4204 108.465 30.4396C108.343 30.5308 108.186 30.574 107.992 30.5692C107.799 30.5644 107.608 30.5172 107.421 30.4276C107.239 30.3444 107.092 30.2292 106.982 30.082ZM109.144 24.6653L109.857 25.6157C110.059 25.8845 110.281 26.0477 110.524 26.1053C110.774 26.1581 111.065 26.0597 111.398 25.8101C111.737 25.5557 111.913 25.3037 111.926 25.0541C111.939 24.8045 111.844 24.5453 111.643 24.2765L110.93 23.3261L109.144 24.6653Z" fill="#F39325"/>
<path d="M100.974 22.8893C100.81 22.7261 100.69 22.54 100.615 22.3311C100.546 22.1278 100.579 21.9579 100.715 21.8215L105.299 17.1912L104.122 16.026C103.997 15.9022 103.957 15.744 104.001 15.5515C104.057 15.3588 104.163 15.1829 104.321 15.0238C104.462 14.8817 104.625 14.779 104.812 14.7159C104.998 14.6527 105.162 14.6915 105.304 14.8322L108.988 18.4796C109.13 18.6204 109.171 18.7842 109.109 18.9712C109.048 19.1582 108.947 19.3227 108.806 19.4648C108.649 19.624 108.474 19.7324 108.282 19.7899C108.095 19.8417 107.937 19.8029 107.806 19.6735L106.629 18.5083L102.045 23.1386C101.91 23.275 101.737 23.307 101.528 23.2345C101.324 23.1676 101.139 23.0526 100.974 22.8893Z" fill="#F39325"/>
<path d="M95.4805 18.3971C95.0624 18.0879 94.7217 17.7414 94.4583 17.3575C94.1949 16.9737 94.026 16.61 93.9517 16.2665C93.8822 15.9166 93.9259 15.6355 94.0828 15.4232C94.1637 15.3139 94.2783 15.2195 94.4265 15.1401C94.5796 15.0543 94.7376 15.002 94.9007 14.9833C95.0702 14.9694 95.2161 15.0076 95.3383 15.098C95.4541 15.1836 95.534 15.2974 95.5782 15.4396C95.6288 15.5864 95.6763 15.7509 95.7207 15.933C95.7716 16.1199 95.848 16.3058 95.9501 16.4907C96.0585 16.6804 96.2253 16.8584 96.4505 17.0249C96.5984 17.1343 96.7574 17.2221 96.9275 17.2881C97.1087 17.3525 97.2776 17.373 97.4343 17.3495C97.6021 17.3244 97.7431 17.2346 97.8573 17.0803C97.981 16.913 98.0309 16.7311 98.0072 16.5344C97.9882 16.3314 97.9212 16.1126 97.806 15.8782C97.6972 15.6485 97.5692 15.4046 97.4219 15.1463C97.2857 14.8865 97.1511 14.6178 97.018 14.3402C96.8897 14.0563 96.7917 13.765 96.7241 13.4662C96.6677 13.1658 96.6705 12.8593 96.7324 12.5469C96.7943 12.2345 96.9441 11.9175 97.182 11.5959C97.4484 11.2357 97.7451 10.9825 98.0721 10.8363C98.4039 10.6836 98.7458 10.6181 99.098 10.6398C99.4549 10.655 99.8042 10.7342 100.146 10.8775C100.499 11.0192 100.827 11.2018 101.129 11.4253C101.258 11.5205 101.421 11.6562 101.619 11.8324C101.817 12.0087 102.001 12.2043 102.17 12.4191C102.346 12.6388 102.465 12.8612 102.527 13.0864C102.594 13.3051 102.559 13.5078 102.421 13.6943C102.359 13.7779 102.258 13.8674 102.118 13.9627C101.989 14.0564 101.844 14.1182 101.682 14.1481C101.527 14.1827 101.379 14.1477 101.238 14.0431C101.122 13.9574 101.034 13.8476 100.974 13.7136C100.925 13.5779 100.845 13.4241 100.733 13.252C100.633 13.0783 100.451 12.8939 100.187 12.6989C99.9619 12.5324 99.754 12.4234 99.5632 12.3719C99.3837 12.3187 99.2284 12.3133 99.0975 12.3558C98.9714 12.3919 98.8702 12.4613 98.7941 12.5643C98.6942 12.6993 98.6609 12.8588 98.6941 13.0425C98.7321 13.2199 98.8079 13.4202 98.9214 13.6434C99.0461 13.865 99.1789 14.1025 99.3198 14.356C99.4719 14.6077 99.6097 14.8788 99.7333 15.1692C99.8616 15.4531 99.9516 15.7485 100.003 16.0554C100.061 16.367 100.052 16.6887 99.9761 17.0204C99.8999 17.3521 99.7334 17.6917 99.4766 18.039C99.1341 18.5021 98.7378 18.816 98.2877 18.9806C97.8488 19.1436 97.3874 19.1755 96.9035 19.0763C96.4244 18.9707 95.95 18.7443 95.4805 18.3971Z" fill="#F39325"/>
<path d="M91.1589 15.3535C90.9582 15.2371 90.7954 15.0873 90.6705 14.904C90.5525 14.7247 90.5416 14.5519 90.6379 14.3858L94.4643 7.78234C94.5646 7.60929 94.7198 7.53283 94.9301 7.55295C95.1472 7.57708 95.3562 7.64731 95.5569 7.76362C95.7577 7.87994 95.919 8.0243 96.041 8.1967C96.17 8.37312 96.1843 8.54785 96.084 8.72089L92.2576 15.3244C92.1613 15.4905 92.0026 15.565 91.7814 15.5477C91.5672 15.5345 91.3597 15.4698 91.1589 15.3535Z" fill="#F39325"/>
<path d="M84.2892 12.178C84.0616 12.0794 83.9003 11.9486 83.8054 11.7854C83.7177 11.6254 83.7041 11.4756 83.7645 11.3361L86.7973 4.3326C86.8736 4.15641 87.0079 4.05765 87.2002 4.03631C87.3999 4.01816 87.5915 4.04882 87.775 4.12829L90.0324 5.10584C90.3995 5.26479 90.728 5.47244 91.018 5.7288C91.308 5.98515 91.4975 6.30258 91.5864 6.68108C91.6785 7.05224 91.6117 7.49843 91.386 8.01966C91.1921 8.46747 90.9471 8.80165 90.6511 9.02218C90.3656 9.23855 90.049 9.34556 89.7013 9.3432C89.8939 9.5225 90.0445 9.71845 90.1529 9.93105C90.2645 10.1363 90.3188 10.3734 90.3157 10.6423C90.3126 10.9112 90.2315 11.2292 90.0726 11.5963L89.9724 11.8275C89.7213 12.4075 89.4219 12.827 89.0743 13.0862C88.734 13.3486 88.3616 13.4838 87.9572 13.4917C87.5601 13.5028 87.1523 13.4178 86.7338 13.2366L84.2892 12.178ZM85.8957 11.0952L86.9969 11.5721C87.2759 11.6929 87.5274 11.7059 87.7515 11.6111C87.9756 11.5164 88.164 11.2928 88.3166 10.9405L88.3929 10.7643C88.555 10.3899 88.5908 10.0959 88.5002 9.88229C88.4128 9.66136 88.2296 9.4905 87.9506 9.36969L86.8494 8.89284L85.8957 11.0952ZM87.4217 7.57142L88.5779 8.07211C88.7908 8.1643 88.9836 8.1519 89.1563 8.0349C89.3291 7.9179 89.4551 7.76763 89.5346 7.5841C89.5918 7.45196 89.6202 7.31603 89.6197 7.17632C89.6265 7.03978 89.5981 6.91415 89.5344 6.79941C89.4781 6.68785 89.3802 6.60187 89.2407 6.54146L88.0845 6.04077L87.4217 7.57142Z" fill="#F39325"/>
<path d="M75.1431 9.71852C74.947 9.67897 74.7722 9.59474 74.6187 9.46583C74.473 9.3385 74.4191 9.18073 74.4571 8.99253L75.9663 1.51124C76.0059 1.31519 76.1285 1.19302 76.3341 1.14472C76.5475 1.09801 76.768 1.0976 76.9954 1.14347C77.2228 1.18935 77.4219 1.27441 77.5927 1.39864C77.7714 1.52445 77.8409 1.68538 77.8014 1.88143L76.5009 8.32757L79.1829 8.86862C79.3633 8.905 79.48 9.01424 79.533 9.19632C79.5861 9.37841 79.592 9.5714 79.5509 9.77529C79.5113 9.97134 79.431 10.1469 79.31 10.302C79.1905 10.4493 79.0406 10.5048 78.8602 10.4684L75.1431 9.71852Z" fill="#F39325"/>
<path d="M67.3075 9.10132C67.1397 9.09272 66.9616 9.05155 66.7731 8.97781C66.593 8.89649 66.4419 8.79663 66.3198 8.67823C66.1981 8.55184 66.141 8.41673 66.1483 8.27292C66.1496 8.24895 66.1598 8.20542 66.1791 8.14232L68.7827 0.946118C68.8572 0.741666 69.017 0.593648 69.262 0.502065C69.507 0.410481 69.7654 0.371649 70.037 0.385567C70.3166 0.399894 70.5697 0.464925 70.796 0.58066C71.0304 0.696804 71.1742 0.860377 71.2275 1.07138L73.094 8.49661C73.1067 8.56135 73.1124 8.6057 73.1112 8.62967C73.1038 8.77348 73.0332 8.90203 72.8992 9.01532C72.7656 9.12063 72.6051 9.20453 72.4177 9.26702C72.2307 9.32152 72.0492 9.34427 71.8735 9.33526C71.7217 9.32748 71.5911 9.29676 71.4817 9.24309C71.3807 9.18184 71.3135 9.08628 71.2801 8.9564L70.9494 7.43749L68.4207 7.30793L67.9365 8.78509C67.898 8.91128 67.8214 8.99948 67.7066 9.04967C67.5923 9.09188 67.4593 9.1091 67.3075 9.10132ZM68.8779 5.88946L70.6276 5.97911L69.9173 2.7225L68.8779 5.88946Z" fill="#F39325"/>
<path d="M59.6668 9.76112C59.4363 9.78721 59.2162 9.7638 59.0067 9.69089C58.8051 9.61709 58.6936 9.48479 58.672 9.29401L57.8153 1.72232C57.7928 1.52359 57.872 1.36971 58.0529 1.26068C58.2408 1.14281 58.45 1.07083 58.6806 1.04474C58.9031 1.01956 59.0882 1.01874 59.2358 1.0423C59.3904 1.05701 59.5346 1.12121 59.6682 1.23491C59.8098 1.3477 59.9727 1.54262 60.157 1.81965L62.5056 5.28558L62.0469 1.23145C62.0244 1.03271 62.1036 0.878834 62.2845 0.769805C62.4733 0.659877 62.683 0.591872 62.9135 0.565788C63.1441 0.539704 63.3597 0.55959 63.5604 0.625445C63.769 0.690401 63.8845 0.822245 63.907 1.02098L64.7651 8.60459C64.7867 8.79537 64.7035 8.9497 64.5156 9.06758C64.3356 9.18456 64.1303 9.25609 63.8998 9.28217C63.6852 9.30646 63.4828 9.29714 63.2928 9.25424C63.1028 9.21133 62.9404 9.09283 62.8057 8.89874L60.0734 5.02941L60.5321 9.08354C60.5537 9.27432 60.4705 9.42865 60.2826 9.54653C60.1026 9.66351 59.8973 9.73504 59.6668 9.76112Z" fill="#F39325"/>
<path d="M56.147 10.5674C56.0316 10.6003 55.9135 10.6089 55.7926 10.5934C55.6773 10.5681 55.5713 10.5026 55.4747 10.397L53.0194 7.77725L52.2577 7.99414L53.0496 10.7756C53.1022 10.9602 53.0455 11.1261 52.8794 11.2732C52.721 11.4181 52.5303 11.5224 52.3072 11.5859C52.084 11.6494 51.8631 11.6624 51.6445 11.6248C51.4335 11.5851 51.3018 11.4729 51.2492 11.2882L49.1592 3.94799C49.1175 3.8018 49.1314 3.6606 49.2008 3.5244C49.2701 3.38821 49.3894 3.29601 49.5587 3.24781L51.9477 2.56756C52.4786 2.4164 52.9776 2.35751 53.4446 2.3909C53.9171 2.4144 54.3318 2.57082 54.6886 2.86015C55.0433 3.14178 55.3105 3.59806 55.4901 4.22898C55.6128 4.65986 55.6575 5.05055 55.6242 5.40107C55.5965 5.74169 55.5033 6.04271 55.3449 6.3041C55.1941 6.5633 54.9994 6.7851 54.7607 6.96949L56.895 9.11919C56.9269 9.1434 56.9521 9.17364 56.9708 9.20992C56.9894 9.2462 57.0031 9.27973 57.0119 9.31051C57.0535 9.45669 57.0374 9.61931 56.9636 9.79837C56.8899 9.97742 56.7776 10.1383 56.627 10.281C56.484 10.4215 56.324 10.517 56.147 10.5674ZM51.8633 6.60918L53.0059 6.28385C53.329 6.19184 53.561 6.0426 53.7019 5.83613C53.8405 5.62198 53.8529 5.31485 53.739 4.91475C53.6229 4.50696 53.4506 4.25241 53.2221 4.15111C52.9936 4.0498 52.7178 4.04516 52.3947 4.13717L51.2521 4.46251L51.8633 6.60918Z" fill="#F39325"/>
<path d="M46.9904 13.8978C46.4771 14.1411 45.9751 14.2773 45.4842 14.3063C44.9933 14.3354 44.5359 14.2202 44.1119 13.9608C43.6952 13.698 43.3395 13.2557 43.0448 12.634L40.7113 7.71105C40.6257 7.53032 40.6507 7.35908 40.7865 7.19732C40.9223 7.03557 41.0987 6.90329 41.3155 6.80049C41.5252 6.70112 41.7356 6.65008 41.9468 6.64736C42.1652 6.64122 42.3173 6.72851 42.4029 6.90923L44.7364 11.8322C44.9111 12.2009 45.1317 12.4327 45.3981 12.5278C45.6683 12.6122 45.9661 12.5773 46.2914 12.4231C46.6167 12.2689 46.8286 12.0623 46.927 11.8031C47.0293 11.5333 46.9931 11.214 46.8184 10.8453L44.4849 5.92239C44.3992 5.74166 44.4243 5.57042 44.5601 5.40866C44.6959 5.24691 44.8722 5.11463 45.0891 5.01183C45.2987 4.91246 45.5092 4.86142 45.7203 4.8587C45.9388 4.85256 46.0908 4.93985 46.1765 5.12057L48.5099 10.0435C48.8046 10.6652 48.9182 11.2223 48.8506 11.7147C48.7902 12.2037 48.5934 12.629 48.2601 12.9905C47.9269 13.3521 47.5036 13.6546 46.9904 13.8978Z" fill="#F39325"/>
<path d="M40.4939 17.5505C40.302 17.6809 40.0963 17.7626 39.877 17.7956C39.6642 17.824 39.5039 17.7589 39.396 17.6L35.7345 12.2101L34.3647 13.1406C34.2191 13.2395 34.0561 13.2487 33.8756 13.1682C33.6973 13.0765 33.5452 12.9381 33.4194 12.7528C33.307 12.5873 33.2377 12.4071 33.2116 12.2121C33.1855 12.017 33.2552 11.8633 33.4206 11.7509L37.7088 8.83793C37.8742 8.72554 38.0428 8.71742 38.2145 8.81355C38.3862 8.90969 38.5282 9.04048 38.6406 9.20592C38.7665 9.39121 38.8391 9.58362 38.8586 9.78315C38.8736 9.97606 38.805 10.1242 38.6528 10.2276L37.283 11.1581L40.9445 16.5481C41.0524 16.7069 41.0506 16.8823 40.9391 17.074C40.8342 17.2613 40.6858 17.4202 40.4939 17.5505Z" fill="#F39325"/>
<path d="M34.9863 22.0724C34.604 22.4248 34.1887 22.6824 33.7404 22.8453C33.2922 23.0082 32.8301 23.0262 32.354 22.8992C31.8838 22.7669 31.4156 22.4477 30.9493 21.9418L28.7941 19.6035C28.3279 19.0976 28.0479 18.605 27.9542 18.1256C27.8664 17.6408 27.9219 17.1816 28.1207 16.7481C28.3195 16.3146 28.6101 15.9217 28.9925 15.5693C29.416 15.1789 29.8576 14.9025 30.3171 14.74C30.7771 14.5663 31.2235 14.5194 31.6562 14.5993C32.0888 14.6792 32.4787 14.9074 32.8257 15.2839C33.0697 15.5486 33.1764 15.7766 33.146 15.9678C33.1101 16.1532 32.9745 16.3543 32.7392 16.5712C32.5569 16.7393 32.371 16.8562 32.1814 16.9221C31.9978 16.9826 31.8269 16.9388 31.6688 16.7908C31.6145 16.732 31.5379 16.6666 31.439 16.5946C31.3459 16.5172 31.2351 16.4561 31.1067 16.4112C30.9784 16.3664 30.8341 16.3633 30.674 16.4021C30.5139 16.4409 30.3397 16.547 30.1515 16.7205C29.8985 16.9536 29.7693 17.2088 29.7636 17.486C29.7584 17.7519 29.8941 18.0348 30.1706 18.3348L32.3258 20.6731C32.6023 20.9731 32.8789 21.1316 33.1557 21.1485C33.427 21.1596 33.6891 21.0485 33.9421 20.8154C34.1185 20.6527 34.2297 20.4959 34.2754 20.3449C34.3271 20.1885 34.3358 20.0445 34.3015 19.9129C34.2618 19.7754 34.2047 19.6485 34.1302 19.5322C34.0557 19.416 33.9807 19.311 33.9053 19.2173C33.7652 19.0418 33.7355 18.8679 33.8161 18.6957C33.8972 18.5122 34.026 18.3391 34.2025 18.1764C34.4436 17.9541 34.6608 17.8356 34.8539 17.8208C35.0415 17.8001 35.2574 17.9222 35.5013 18.1869C35.8592 18.5751 36.0685 18.9969 36.1292 19.4523C36.1899 19.9077 36.1203 20.3635 35.9206 20.8196C35.7213 21.2644 35.4099 21.682 34.9863 22.0724Z" fill="#F39325"/>
<path d="M29.91 27.5872C29.565 28.0181 29.1806 28.3508 28.7569 28.5855C28.3382 28.8139 27.884 28.9011 27.3943 28.8471C26.9096 28.7869 26.3987 28.5417 25.8617 28.1116L23.3797 26.1237C22.8427 25.6936 22.4918 25.2486 22.3272 24.7888C22.1675 24.3226 22.1534 23.8604 22.2848 23.4019C22.4213 22.9372 22.662 22.4894 23.0071 22.0586C23.3522 21.6277 23.7365 21.295 24.1602 21.0603C24.5839 20.8257 25.0381 20.7385 25.5228 20.7987C26.0125 20.8527 26.5259 21.0948 27.0629 21.5249L29.545 23.5128C30.082 23.9429 30.4303 24.391 30.59 24.8571C30.7546 25.3169 30.7687 25.7792 30.6323 26.2439C30.4959 26.7086 30.2551 27.1564 29.91 27.5872ZM28.6362 26.567C28.8463 26.3048 28.9364 26.0387 28.9065 25.7688C28.8767 25.4989 28.6994 25.234 28.3747 24.9739L25.8927 22.986C25.568 22.7259 25.2707 22.6108 25.0008 22.6407C24.7309 22.6705 24.4909 22.8165 24.2809 23.0788C24.0709 23.3411 23.9808 23.6071 24.0106 23.877C24.0454 24.1407 24.2252 24.4025 24.5499 24.6626L27.032 26.6505C27.3566 26.9105 27.6514 27.0288 27.9163 27.0052C28.1862 26.9753 28.4262 26.8293 28.6362 26.567Z" fill="#F39325"/>
<path d="M24.4814 35.8586C24.3664 36.0601 24.2177 36.2239 24.0352 36.3501C23.8567 36.4693 23.6841 36.4813 23.5173 36.3862L16.8986 32.6103C16.7249 32.5112 16.6474 32.3565 16.6661 32.1461C16.6818 31.9248 16.7471 31.7134 16.8621 31.5119C16.9731 31.3173 17.0816 31.1674 17.1877 31.0622C17.2908 30.946 17.4277 30.8675 17.5984 30.8267C17.773 30.7789 18.0265 30.7624 18.3589 30.777L22.5429 30.9259L18.9991 28.9042C18.8253 28.8051 18.7478 28.6503 18.7665 28.4399C18.7892 28.2226 18.858 28.0132 18.973 27.8117C19.0879 27.6102 19.2312 27.4478 19.4028 27.3247C19.5783 27.1945 19.753 27.179 19.9267 27.2781L26.5558 31.0599C26.7226 31.1551 26.7981 31.3133 26.7824 31.5346C26.7706 31.7489 26.7073 31.9569 26.5923 32.1584C26.4853 32.346 26.3584 32.5038 26.2116 32.632C26.0649 32.7601 25.8734 32.8212 25.6372 32.8154L20.901 32.7384L24.4449 34.7602C24.6117 34.8553 24.6872 35.0135 24.6715 35.2348C24.6597 35.4491 24.5964 35.6571 24.4814 35.8586Z" fill="#F39325"/>
</g>
<defs>
<clipPath id="clip0_797_2">
<rect width="131" height="145" fill="white"/>
</clipPath>
</defs>
</svg>
