<svg width="131" height="145" viewBox="0 0 131 145" fill="none" xmlns="http://www.w3.org/2000/svg">
<g clip-path="url(#clip0_184_18)">
<path d="M24.9868 34.927C24.8492 35.1571 24.7116 35.2951 24.5741 35.3412C24.3907 35.3872 24.2531 35.3872 24.1155 35.3412L17.6499 31.6598C17.4665 31.5678 17.4206 31.4297 17.4206 31.2456C17.4206 31.0616 17.4665 30.8775 17.5582 30.6934L18.7504 28.6227C18.9339 28.3005 19.1631 27.9784 19.4383 27.7483C19.7134 27.4722 20.0344 27.3342 20.4012 27.2882C20.7681 27.2421 21.1808 27.3342 21.6852 27.6103C22.0979 27.8404 22.373 28.1165 22.5564 28.4386C22.7399 28.7147 22.7857 29.0368 22.7857 29.4049C22.9691 29.2209 23.1984 29.1288 23.3818 29.0368C23.6111 28.9448 23.8404 28.9448 24.0697 28.9448C24.3448 28.9908 24.6199 29.0828 24.9868 29.2669L25.2161 29.4049C25.7663 29.7271 26.1332 30.0492 26.3166 30.4173C26.5459 30.7855 26.6376 31.1536 26.5917 31.5217C26.5459 31.8899 26.4541 32.304 26.2249 32.6722L24.9868 34.927ZM24.1155 33.2704L24.7116 32.258C24.8492 31.9819 24.8951 31.7518 24.8492 31.5217C24.8034 31.2916 24.5741 31.1076 24.2531 30.9235L24.0697 30.8315C23.7028 30.6474 23.4277 30.5554 23.2443 30.6474C23.015 30.6934 22.8316 30.8775 22.694 31.1076L22.0979 32.12L24.1155 33.2704ZM20.8598 31.4297L21.4559 30.3713C21.5476 30.1872 21.5935 30.0032 21.5018 29.8191C21.4101 29.635 21.2725 29.497 21.0891 29.4049C20.9515 29.3129 20.8598 29.3129 20.7222 29.2669C20.5847 29.2669 20.4471 29.2669 20.3554 29.3129C20.2637 29.3589 20.1261 29.451 20.0803 29.589L19.4841 30.6474L20.8598 31.4297Z" fill="#F39325"/>
<path d="M29.4806 27.7944C29.343 27.9784 29.1596 28.1165 28.9762 28.2085C28.7928 28.3005 28.6093 28.3005 28.4718 28.1625L22.5564 23.6528C22.4189 23.5148 22.3272 23.3767 22.373 23.1926C22.4189 23.0086 22.5106 22.7785 22.6481 22.5944C22.7857 22.4103 22.9233 22.2723 23.1067 22.1803C23.2901 22.0882 23.4735 22.0882 23.6111 22.1803L29.5265 26.6899C29.664 26.782 29.7099 26.966 29.664 27.1961C29.7099 27.4262 29.6182 27.6103 29.4806 27.7944Z" fill="#F39325"/>
<path d="M33.3783 23.3767C33.0115 23.7448 32.6446 24.0209 32.2319 24.205C31.8192 24.3891 31.4524 24.5271 31.1314 24.5271C30.7646 24.5271 30.5353 24.4811 30.3519 24.297C30.2601 24.205 30.1684 24.067 30.1226 23.9289C30.0767 23.7909 30.0309 23.6068 30.0309 23.4687C30.0309 23.2847 30.0767 23.1466 30.2143 23.0546C30.306 22.9625 30.4436 22.8705 30.5811 22.8705C30.7187 22.8245 30.9021 22.8245 31.0855 22.7785C31.269 22.7325 31.4524 22.6864 31.6358 22.6404C31.8192 22.5484 32.0485 22.4103 32.2319 22.2263C32.3695 22.0882 32.4612 21.9502 32.5529 21.8121C32.6446 21.6281 32.6905 21.49 32.6905 21.352C32.6905 21.1679 32.6446 21.0298 32.5071 20.8918C32.2778 20.7537 32.1402 20.7077 31.9109 20.7077C31.7275 20.7077 31.4982 20.7537 31.269 20.7997C31.0397 20.8918 30.7646 20.9838 30.5353 21.0758C30.2601 21.1679 29.985 21.2599 29.7099 21.352C29.4348 21.444 29.1138 21.49 28.8386 21.536C28.5635 21.536 28.2425 21.49 27.9674 21.398C27.6922 21.3059 27.3713 21.1219 27.0961 20.8458C26.7751 20.5236 26.5917 20.2015 26.5 19.8794C26.4083 19.5573 26.3624 19.1891 26.4541 18.867C26.5 18.5449 26.6376 18.1768 26.821 17.9007C27.0044 17.5785 27.2337 17.3024 27.463 17.0263C27.5547 16.9343 27.7381 16.7963 27.9215 16.6122C28.1049 16.4281 28.3342 16.2901 28.5635 16.152C28.7928 16.014 29.0221 15.9219 29.2513 15.9219C29.4806 15.8759 29.664 15.9679 29.8016 16.106C29.8933 16.198 29.9392 16.2901 30.0309 16.4281C30.1226 16.5662 30.1226 16.7042 30.1684 16.8883C30.1684 17.0263 30.1226 17.1644 29.985 17.3024C29.8933 17.3945 29.7557 17.4865 29.6182 17.5325C29.4806 17.5785 29.343 17.6246 29.1596 17.7166C28.9762 17.8086 28.7928 17.9467 28.5635 18.1768C28.3801 18.3608 28.2425 18.5449 28.1508 18.729C28.0591 18.913 28.0591 19.0511 28.0591 19.1891C28.0591 19.3272 28.1508 19.4192 28.1967 19.5113C28.3342 19.6033 28.4718 19.6953 28.6552 19.6953C28.8386 19.6953 29.0221 19.6493 29.2513 19.5573C29.4806 19.4652 29.7099 19.3732 29.985 19.2812C30.2601 19.1891 30.5353 19.0511 30.8104 19.0051C31.0855 18.913 31.4065 18.867 31.6817 18.867C32.0027 18.867 32.2778 18.913 32.5988 19.0051C32.9198 19.1431 33.1949 19.3272 33.5159 19.6493C33.9286 20.0635 34.1579 20.4776 34.2496 20.9378C34.3413 21.398 34.2954 21.8121 34.1579 22.2723C34.0661 22.5484 33.791 22.9625 33.3783 23.3767Z" fill="#F39325"/>
<path d="M39.2478 18.0387C39.0644 18.1768 38.881 18.2688 38.6517 18.3148C38.4683 18.3608 38.2848 18.2688 38.1931 18.1308L34.4788 12.9768L33.1949 13.9432C33.0573 14.0352 32.9198 14.0352 32.7363 13.9892C32.5529 13.8972 32.4153 13.7591 32.2778 13.6211C32.1861 13.483 32.0944 13.299 32.0485 13.1149C32.0026 12.9308 32.0944 12.7928 32.2319 12.6547L36.3131 9.70962C36.4506 9.61758 36.634 9.57157 36.8175 9.6636C37.0009 9.75563 37.1384 9.89369 37.2302 10.0317C37.3677 10.2158 37.4136 10.3999 37.4594 10.5839C37.4594 10.768 37.4136 10.9061 37.276 11.0441L35.9921 12.0105L39.7064 17.1644C39.7981 17.3024 39.7981 17.4865 39.7064 17.6706C39.5688 17.7626 39.4312 17.9007 39.2478 18.0387Z" fill="#F39325"/>
<path d="M48.052 12.9308C47.9603 12.9768 47.8227 13.0229 47.731 13.0229C47.6393 13.0229 47.5018 12.9768 47.41 12.8848L44.6129 10.814L43.925 11.1361L45.1631 13.6671C45.2548 13.8512 45.209 13.9892 45.0714 14.1733C44.9339 14.3573 44.7963 14.4494 44.567 14.5874C44.3836 14.6795 44.1543 14.7255 43.925 14.7255C43.6958 14.7255 43.5582 14.6335 43.5123 14.4494L40.2566 7.7769C40.2108 7.63885 40.1649 7.5008 40.2108 7.36274C40.2566 7.22469 40.3483 7.13266 40.4859 7.04062L42.6869 5.98223C43.1455 5.75214 43.6499 5.61409 44.1085 5.56808C44.567 5.52206 44.9797 5.56808 45.3924 5.79816C45.7593 6.02825 46.1261 6.39638 46.4012 6.99461C46.5846 7.40876 46.7222 7.73088 46.7222 8.09902C46.7681 8.42114 46.7222 8.74326 46.6305 9.01936C46.5388 9.29546 46.4012 9.52555 46.1719 9.75564L48.5564 11.4583C48.6023 11.4583 48.6023 11.5043 48.6481 11.5503C48.694 11.5963 48.694 11.5963 48.694 11.6423C48.7399 11.7804 48.7857 11.9184 48.7399 12.1025C48.694 12.2866 48.6023 12.4706 48.5106 12.6087C48.373 12.7467 48.2354 12.8388 48.052 12.9308ZM43.3289 9.89369L44.3836 9.3875C44.6587 9.24945 44.888 9.06538 44.9797 8.83529C45.0714 8.60521 45.0256 8.3291 44.8421 7.96097C44.6587 7.59283 44.4753 7.36274 44.2002 7.31673C43.9709 7.27071 43.6958 7.31673 43.4206 7.45478L42.366 7.96097L43.3289 9.89369Z" fill="#F39325"/>
<path d="M54.1508 10.722C53.6464 10.86 53.142 10.9061 52.6834 10.86C52.2249 10.814 51.8122 10.63 51.4453 10.3078C51.0785 9.98572 50.8492 9.47953 50.6658 8.83529L49.8404 5.84418C49.657 5.19994 49.6111 4.64773 49.7487 4.18756C49.8862 3.72739 50.1155 3.35925 50.4824 3.08315C50.8492 2.80704 51.3078 2.57696 51.8122 2.43891C52.3166 2.30086 52.821 2.25484 53.2795 2.30086C53.7381 2.34687 54.1508 2.53094 54.5176 2.85306C54.8845 3.17518 55.1596 3.63535 55.343 4.27959L56.1684 7.27071C56.3518 7.91495 56.3518 8.46715 56.2143 8.92732C56.0767 9.3875 55.8474 9.75563 55.4806 10.0317C55.0679 10.3539 54.6552 10.5839 54.1508 10.722ZM53.6922 9.20343C54.0132 9.11139 54.2425 8.97334 54.3342 8.74326C54.4718 8.51317 54.4718 8.19105 54.3801 7.82291L53.5547 4.8318C53.463 4.46366 53.2795 4.18756 53.0503 4.04951C52.821 3.91146 52.5459 3.91146 52.2249 4.00349C51.9039 4.09552 51.6746 4.23358 51.5829 4.46366C51.4453 4.69375 51.4453 5.01587 51.5829 5.384L52.4083 8.37512C52.5 8.74326 52.6834 9.01936 52.9127 9.15741C53.0961 9.24944 53.3712 9.29546 53.6922 9.20343Z" fill="#F39325"/>
<path d="M65.7981 8.88131C65.2019 8.88131 64.6517 8.78927 64.1931 8.55919C63.7346 8.3291 63.3677 8.00698 63.1385 7.59283C62.8633 7.17867 62.7716 6.76452 62.7716 6.30435C62.7716 5.98223 62.8175 5.66011 62.955 5.33799C63.0926 5.01587 63.2302 4.73976 63.4594 4.50968C63.6887 4.27959 63.918 4.04951 64.1473 3.91146C63.918 3.68137 63.7346 3.40527 63.597 3.17518C63.4594 2.89908 63.3677 2.62298 63.3677 2.25484C63.3677 1.79467 63.4594 1.42653 63.6887 1.10441C63.918 0.78229 64.239 0.552205 64.6058 0.368136C65.0185 0.184068 65.4312 0.0920334 65.8898 0.0920334C66.3942 0.0920334 66.8069 0.138051 67.1737 0.322119C67.5406 0.46017 67.8157 0.644239 68.045 0.874325C68.2284 1.10441 68.366 1.3345 68.366 1.51856C68.366 1.74865 68.2742 1.93272 68.0908 2.11679C67.9074 2.20882 67.724 2.30086 67.4947 2.30086C67.3571 2.30086 67.2196 2.25484 67.1279 2.1628C67.0362 2.07077 66.9444 1.97874 66.8069 1.8867C66.7152 1.74865 66.5776 1.65662 66.44 1.56458C66.3025 1.47255 66.1191 1.42653 65.8898 1.42653C65.6605 1.42653 65.4312 1.51856 65.2478 1.6106C65.0644 1.74865 64.9727 1.93272 64.9727 2.20882C64.9727 2.43891 65.0644 2.62298 65.2019 2.85306C65.3395 3.08315 65.5229 3.26722 65.7063 3.45128C65.8898 3.63535 66.0732 3.81942 66.2566 4.00349L67.9533 5.70612C68.045 5.43002 68.0908 5.19994 68.0908 4.96985C68.0908 4.73976 68.0908 4.5557 68.1367 4.37163C68.1367 4.18756 68.2284 4.09552 68.3201 4.00349C68.4118 3.91146 68.6411 3.86544 68.9162 3.86544C69.2372 3.86544 69.4206 3.91146 69.5582 4.09552C69.6499 4.23358 69.6958 4.46366 69.6958 4.69375C69.6958 4.92383 69.6958 5.1079 69.6041 5.384C69.5582 5.61409 69.5123 5.89019 69.3748 6.12028C69.2831 6.35036 69.1455 6.62647 69.0079 6.85655L69.925 7.77689C69.9709 7.82291 69.9709 7.86893 70.0168 7.91495C70.0168 7.96096 70.0626 8.00698 70.0626 8.053C70.0626 8.23707 69.9709 8.42114 69.7875 8.55919C69.6041 8.69724 69.4206 8.78927 69.2372 8.78927C69.1455 8.78927 69.0996 8.78927 69.0079 8.74325C68.9621 8.69724 68.8704 8.65122 68.7787 8.6052L68.1367 7.96096C67.8157 8.23707 67.4947 8.42114 67.082 8.6052C66.761 8.78927 66.3025 8.83529 65.7981 8.88131ZM65.9815 7.27071C66.2108 7.27071 66.44 7.22469 66.6235 7.17867C66.8069 7.08664 66.9444 6.9946 67.082 6.90257L65.1102 4.92383C65.0185 5.01587 64.881 5.1079 64.7892 5.24595C64.6975 5.384 64.6517 5.47604 64.6058 5.66011C64.56 5.79816 64.56 5.93621 64.56 6.12028C64.56 6.35036 64.6058 6.53443 64.7434 6.7185C64.8351 6.90257 65.0185 7.04062 65.2019 7.13266C65.4312 7.22469 65.7064 7.27071 65.9815 7.27071Z" fill="#F39325"/>
<path d="M78.5 10.1238C77.9956 9.98572 77.5829 9.80165 77.2161 9.57157C76.8492 9.34148 76.5741 9.06538 76.3448 8.78927C76.1614 8.51317 76.0697 8.23707 76.1614 7.96097C76.2072 7.82291 76.2531 7.68486 76.3448 7.59283C76.4365 7.45478 76.5741 7.36274 76.7116 7.27071C76.8492 7.17867 76.9868 7.17867 77.1243 7.22469C77.2619 7.27071 77.3536 7.31673 77.4453 7.45478C77.537 7.54681 77.6287 7.68486 77.7663 7.82291C77.9039 7.96097 78.0414 8.09902 78.179 8.23707C78.3624 8.37512 78.5459 8.46715 78.821 8.51317C79.0044 8.55919 79.1878 8.55919 79.3254 8.55919C79.5088 8.55919 79.6922 8.51317 79.7839 8.42114C79.9215 8.3291 80.0132 8.19105 80.0591 8.00698C80.1049 7.82291 80.1049 7.63885 80.0132 7.45478C79.9215 7.27071 79.784 7.08664 79.6005 6.94859C79.4171 6.76452 79.2337 6.62647 79.0044 6.4424C78.7751 6.25833 78.5459 6.07426 78.3624 5.84418C78.1332 5.61409 77.9497 5.43002 77.7663 5.15392C77.5829 4.92383 77.4912 4.64773 77.4453 4.32561C77.3995 4.00349 77.3995 3.68137 77.4912 3.31323C77.5829 2.89908 77.7663 2.53094 77.9956 2.30086C78.2249 2.02475 78.5 1.84069 78.821 1.74865C79.142 1.6106 79.5088 1.56458 79.8298 1.56458C80.1966 1.56458 80.5635 1.6106 80.9303 1.70263C81.0679 1.74865 81.2972 1.79467 81.5265 1.8867C81.7557 1.97874 81.985 2.07077 82.2601 2.20882C82.4894 2.34687 82.6728 2.48493 82.8104 2.66899C82.948 2.85306 82.9938 3.03713 82.948 3.26722C82.9021 3.35925 82.8563 3.4973 82.7645 3.63535C82.6728 3.77341 82.5811 3.86544 82.4436 3.95747C82.306 4.04951 82.1684 4.04951 81.985 4.04951C81.8474 4.00349 81.7099 3.95747 81.6182 3.86544C81.5265 3.77341 81.3889 3.63535 81.2513 3.54332C81.1138 3.40527 80.8845 3.31323 80.5635 3.26722C80.2884 3.2212 80.0591 3.17518 79.8757 3.2212C79.6922 3.2212 79.5547 3.31323 79.463 3.35925C79.3713 3.45129 79.2795 3.54332 79.2795 3.68137C79.2337 3.81942 79.2795 4.00349 79.3713 4.14154C79.463 4.27959 79.6005 4.41765 79.7839 4.60171C79.9674 4.73977 80.1967 4.92383 80.4259 5.1079C80.6552 5.29197 80.8845 5.47604 81.1138 5.70613C81.343 5.93621 81.5265 6.1663 81.664 6.39638C81.8474 6.67249 81.9392 6.94859 81.985 7.27071C82.0309 7.59283 82.0309 7.96097 81.8933 8.37512C81.7557 8.92733 81.5265 9.34148 81.1596 9.6636C80.8386 9.98572 80.4259 10.1698 79.9674 10.2618C79.5547 10.3078 79.0503 10.2618 78.5 10.1238Z" fill="#F39325"/>
<path d="M84.5988 11.8264C84.4153 11.7344 84.2319 11.5963 84.0944 11.4583C83.9568 11.2742 83.9568 11.1361 84.0026 10.9521L87.0291 4.18756C87.1208 4.00349 87.2584 3.91145 87.4418 3.91145C87.6711 3.91145 87.8545 3.95747 88.0838 4.0495C88.2672 4.14154 88.4506 4.27959 88.5882 4.41764C88.7257 4.55569 88.7716 4.73976 88.6799 4.92383L87.5335 7.54681L89.6428 8.51317L90.7892 5.89019C90.8809 5.70612 91.0185 5.61409 91.2019 5.61409C91.4312 5.61409 91.6146 5.6601 91.8439 5.75214C92.0273 5.84417 92.2108 5.98222 92.3483 6.12028C92.4859 6.25833 92.5317 6.4424 92.44 6.62646L89.4136 13.391C89.3219 13.5751 89.1843 13.6671 88.955 13.6671C88.7257 13.6671 88.5423 13.6211 88.313 13.529C88.1296 13.437 87.9462 13.2989 87.8086 13.1609C87.6711 12.9768 87.6711 12.8388 87.7169 12.6547L89.0009 9.75563L86.8915 8.78927L85.6076 11.6883C85.5159 11.8724 85.3783 11.9645 85.149 11.9645C85.0115 11.9645 84.7822 11.9184 84.5988 11.8264Z" fill="#F39325"/>
<path d="M92.5776 15.9219C92.3942 15.7839 92.2566 15.6458 92.119 15.4618C92.0273 15.2777 92.0273 15.0936 92.119 14.9556L96.0626 8.65122C96.1543 8.46715 96.3377 8.42113 96.5212 8.46715C96.7504 8.51317 96.9339 8.55919 97.1173 8.69724C97.3007 8.83529 97.4383 8.97334 97.5758 9.15741C97.7134 9.34148 97.7134 9.52555 97.6217 9.6636L93.6781 15.9679C93.5864 16.106 93.403 16.198 93.2196 16.152C92.9444 16.106 92.761 16.014 92.5776 15.9219Z" fill="#F39325"/>
<path d="M97.3007 19.4192C96.9339 19.0971 96.6129 18.729 96.3836 18.3608C96.1543 17.9927 96.0168 17.6246 95.9709 17.2564C95.925 16.9343 95.9709 16.6582 96.1543 16.4281C96.246 16.3361 96.3377 16.244 96.5212 16.152C96.6587 16.06 96.8422 16.014 96.9797 16.014C97.1631 16.014 97.3007 16.06 97.3924 16.152C97.4841 16.244 97.5758 16.3361 97.6217 16.4741C97.6676 16.6122 97.7134 16.7963 97.7134 16.9803C97.7593 17.1644 97.8051 17.3485 97.8968 17.5325C97.9885 17.7166 98.1261 17.9007 98.3554 18.0847C98.4929 18.1768 98.6305 18.3148 98.8139 18.3608C98.9974 18.4529 99.1349 18.4529 99.3183 18.4529C99.5018 18.4529 99.6393 18.3608 99.731 18.2228C99.8686 18.0847 99.9145 17.9007 99.9145 17.7166C99.9145 17.5325 99.8686 17.3024 99.731 17.0724C99.6393 16.8423 99.5476 16.6122 99.4101 16.3361C99.2725 16.06 99.1808 15.8299 99.0432 15.5538C98.9515 15.2777 98.8598 15.0016 98.8139 14.6795C98.7681 14.4034 98.8139 14.0812 98.8598 13.8051C98.9515 13.483 99.0891 13.2069 99.3642 12.8848C99.6393 12.5627 99.9603 12.3326 100.281 12.1945C100.602 12.0565 100.923 12.0105 101.29 12.0565C101.657 12.1025 101.978 12.1945 102.299 12.3326C102.62 12.4706 102.941 12.7007 103.216 12.9308C103.354 13.0228 103.491 13.1609 103.675 13.345C103.858 13.529 104.041 13.7131 104.179 13.9432C104.317 14.1733 104.454 14.4034 104.5 14.6334C104.546 14.8635 104.5 15.0476 104.362 15.2317C104.317 15.3237 104.179 15.3697 104.041 15.4618C103.904 15.5538 103.766 15.5998 103.629 15.5998C103.491 15.6458 103.354 15.5998 103.216 15.4618C103.124 15.3697 103.033 15.2777 102.987 15.1396C102.941 15.0016 102.895 14.8635 102.757 14.6795C102.666 14.4954 102.482 14.3113 102.253 14.1273C102.024 13.9432 101.84 13.8512 101.657 13.7591C101.474 13.7131 101.336 13.6671 101.198 13.7131C101.061 13.7591 100.969 13.8051 100.877 13.8972C100.786 14.0352 100.74 14.1733 100.74 14.3573C100.786 14.5414 100.832 14.7255 100.923 14.9556C101.015 15.1857 101.153 15.4157 101.29 15.6918C101.428 15.9219 101.565 16.198 101.657 16.5201C101.749 16.7963 101.84 17.0724 101.886 17.3945C101.932 17.7166 101.886 17.9927 101.795 18.3148C101.703 18.6369 101.519 18.9591 101.244 19.2812C100.877 19.6953 100.511 20.0175 100.052 20.1555C99.6393 20.2936 99.1808 20.2936 98.7222 20.1555C98.172 20.0175 97.7134 19.7874 97.3007 19.4192Z" fill="#F39325"/>
<path d="M102.024 23.5608C101.886 23.3767 101.795 23.1926 101.703 23.0086C101.657 22.8245 101.703 22.6404 101.84 22.5024L107.481 17.6706C107.618 17.5325 107.802 17.5325 107.985 17.6246C108.168 17.7166 108.352 17.8546 108.489 18.0387C108.627 18.2228 108.719 18.4069 108.81 18.5909C108.856 18.775 108.81 18.9591 108.673 19.0971L106.518 20.9378L108.031 22.7325L110.186 20.8918C110.324 20.7537 110.507 20.7537 110.69 20.8458C110.874 20.9378 111.057 21.0758 111.195 21.2599C111.332 21.444 111.424 21.6281 111.516 21.8121C111.562 21.9962 111.516 22.1803 111.378 22.3183L105.738 27.1501C105.601 27.2882 105.417 27.2882 105.234 27.1961C105.05 27.1041 104.867 26.966 104.729 26.828C104.592 26.6439 104.5 26.4598 104.408 26.2758C104.362 26.0917 104.408 25.9076 104.546 25.7696L106.93 23.6988L105.417 21.9042L103.033 23.9749C102.895 24.113 102.712 24.113 102.528 24.0209C102.345 23.8829 102.207 23.7448 102.024 23.5608Z" fill="#F39325"/>
<path d="M107.389 30.3713C107.297 30.2333 107.251 30.0492 107.205 29.8651C107.16 29.6811 107.16 29.497 107.205 29.3589C107.251 29.1749 107.343 29.0828 107.435 28.9908C107.435 28.9908 107.481 28.9448 107.572 28.9448L114.817 27.2882C115.001 27.2421 115.23 27.2882 115.414 27.4262C115.597 27.5643 115.78 27.7483 115.918 27.9784C116.056 28.2085 116.147 28.4386 116.147 28.7147C116.193 28.9908 116.101 29.1749 115.964 29.3129L110.874 34.7429C110.828 34.789 110.782 34.835 110.782 34.835C110.645 34.927 110.507 34.927 110.369 34.881C110.232 34.835 110.049 34.7429 109.911 34.6049C109.773 34.4668 109.636 34.3288 109.59 34.1907C109.498 34.0527 109.452 33.9606 109.452 33.8226C109.452 33.7306 109.498 33.5925 109.59 33.5005L110.645 32.4421L109.407 30.2793L107.939 30.6474C107.802 30.6934 107.71 30.6474 107.618 30.6014C107.526 30.6014 107.481 30.5094 107.389 30.3713ZM110.828 29.9572L111.653 31.4297L113.946 29.1288L110.828 29.9572Z" fill="#F39325"/>
<path d="M28.7011 90.9299C29.1138 90.9299 29.4347 90.6077 29.4347 90.1936C29.4347 89.7794 29.1138 89.4573 28.7011 89.4573H25.0785V84.0273C24.5741 84.1193 24.0697 84.2113 23.6111 84.2113V101.1C24.2531 101.284 24.8034 101.514 25.3536 101.836H28.7011C29.1138 101.836 29.4347 101.514 29.4347 101.1C29.4347 100.685 29.1138 100.363 28.7011 100.363H25.0785V90.8838H28.7011V90.9299Z" fill="#F39325"/>
<path d="M93.6781 29.1288C93.403 29.4049 93.403 29.8651 93.6781 30.1412C93.9532 30.4173 94.4118 30.4173 94.6869 30.1412L97.3007 27.5182C99.5935 29.8651 101.611 32.4421 103.262 35.1571L100.098 36.9978C99.731 37.1818 99.6393 37.642 99.8227 38.0102C100.006 38.3783 100.465 38.4703 100.832 38.2863L104.041 36.4456C105.646 39.2526 106.884 42.2437 107.802 45.3729L104.271 46.3393C103.904 46.4313 103.675 46.8454 103.766 47.2136C103.858 47.5817 104.271 47.8118 104.638 47.7198L108.168 46.7534C108.765 49.0543 109.177 51.4472 109.361 53.8861C109.865 54.0701 110.369 54.3002 110.874 54.6223C110.232 43.9464 105.784 33.9606 98.1719 26.3218C89.918 18.0387 78.9585 13.483 67.3113 13.483C55.8016 13.483 44.9797 17.9007 36.7716 25.9997C36.7716 25.9997 36.7257 25.9997 36.7257 26.0457C36.7257 26.0457 36.7257 26.0917 36.6799 26.0917C36.5882 26.1837 36.4965 26.2758 36.4048 26.3678C33.7451 29.0368 31.4982 31.9359 29.664 35.1111L29.6182 35.1571V35.2031C27.7381 38.4243 26.2707 41.8756 25.2619 45.4649C25.216 45.557 25.1702 45.649 25.1243 45.741C25.0785 45.8331 25.0785 45.9251 25.1243 46.0171C24.3906 48.8702 23.8862 51.8153 23.7487 54.8064C24.2531 54.4843 24.7575 54.2542 25.2619 54.0701C25.4453 51.5852 25.858 49.1463 26.4541 46.7994L29.8933 47.7198C30.2601 47.8118 30.6728 47.5817 30.7645 47.2136C30.8563 46.8454 30.627 46.4313 30.2601 46.3393L26.821 45.4189C27.7381 42.3358 28.9762 39.3447 30.5811 36.5376L33.7451 38.3783C34.112 38.5624 34.5247 38.4703 34.754 38.1022C34.9374 37.7341 34.8457 37.3199 34.4788 37.0898L31.2231 35.2491C32.8739 32.5341 34.8915 29.9572 37.1843 27.6103L39.7522 30.1872C40.0273 30.4633 40.4859 30.4633 40.761 30.1872C41.0361 29.9111 41.0361 29.451 40.761 29.1749L38.1931 26.5979C40.5317 24.3431 43.1455 22.4103 45.851 20.7997L47.731 24.067C47.9145 24.4351 48.373 24.5271 48.7398 24.3431C49.1067 24.159 49.1984 23.6988 49.015 23.3307L47.1349 20.1095C49.9779 18.5449 53.0044 17.3485 56.1684 16.4741L57.1314 20.0175C57.2231 20.3856 57.6358 20.6157 58.0026 20.5236C58.3695 20.4316 58.5988 20.0175 58.507 19.6493L57.5441 16.106C60.433 15.4157 63.4136 15.0476 66.44 15.0016V18.6369C66.44 19.0511 66.761 19.3732 67.1737 19.3732C67.5864 19.3732 67.9074 19.0511 67.9074 18.6369V15.0016C70.9338 15.0476 73.8686 15.4157 76.7575 16.106L75.7945 19.6493C75.7028 20.0175 75.9321 20.4316 76.2989 20.5236C76.6658 20.6157 77.0785 20.3856 77.1702 20.0175L78.1331 16.4281C81.2972 17.2564 84.3236 18.4989 87.1667 20.0175L85.2866 23.2847C85.1032 23.6528 85.1949 24.067 85.5617 24.297C85.9286 24.4811 86.3413 24.3891 86.5705 24.0209L88.4506 20.7537C91.2019 22.3643 93.7698 24.297 96.1543 26.5519L93.6781 29.1288Z" fill="#F39325"/>
<path d="M109.498 84.0273V89.4573H105.876C105.463 89.4573 105.142 89.7794 105.142 90.1936C105.142 90.6077 105.463 90.9299 105.876 90.9299H109.498V100.409H105.784C105.371 100.409 105.05 100.732 105.05 101.146C105.05 101.56 105.371 101.882 105.784 101.882H109.498C109.498 101.974 109.498 102.02 109.498 102.112C109.957 101.836 110.461 101.606 110.966 101.422C110.966 101.33 110.966 101.238 110.966 101.146V84.2574C110.507 84.2114 110.003 84.1653 109.498 84.0273Z" fill="#F39325"/>
<path d="M103.17 124.246C102.987 124.154 102.895 124.154 102.712 124.246C101.153 126.639 99.3642 128.894 97.3007 130.965L94.6869 128.342C94.4118 128.066 93.9533 128.066 93.6781 128.342C93.403 128.618 93.403 129.078 93.6781 129.354L96.2919 131.977C93.9074 134.232 91.3395 136.165 88.5882 137.775L86.7081 134.508C86.5247 134.14 86.0661 134.048 85.6993 134.232C85.3325 134.416 85.2407 134.876 85.4242 135.244L87.3042 138.512C84.4612 140.076 81.3889 141.273 78.2707 142.101L77.3078 138.512C77.216 138.143 76.8034 137.913 76.4365 138.005C76.0697 138.097 75.8404 138.512 75.9321 138.88L76.8951 142.423C74.0062 143.067 71.0714 143.435 68.045 143.527V139.892C68.045 139.478 67.724 139.156 67.3113 139.156C66.8986 139.156 66.5776 139.478 66.5776 139.892V143.527C63.5511 143.481 60.5705 143.113 57.6817 142.423L58.6446 138.88C58.7363 138.512 58.5071 138.097 58.1402 138.005C57.7734 137.913 57.3607 138.143 57.269 138.512L56.306 142.055C53.142 141.227 50.1155 139.984 47.2725 138.42L49.1526 135.198C49.336 134.83 49.2443 134.416 48.8774 134.186C48.5106 134.002 48.0979 134.094 47.8686 134.462L45.9885 137.729C43.2372 136.119 40.6693 134.186 38.3307 131.931L40.8986 129.354C41.1279 129.124 41.1737 128.71 40.9903 128.434C40.9444 128.388 40.8986 128.388 40.8069 128.342C40.6235 128.25 40.44 128.158 40.3025 128.066C40.119 128.066 39.9815 128.158 39.8439 128.296L37.276 130.873C36.3589 129.952 35.4877 128.986 34.6623 127.974C34.2496 128.25 33.8369 128.526 33.4242 128.756C34.3871 129.906 35.3959 131.057 36.4506 132.115C36.5423 132.207 36.634 132.299 36.7257 132.391C36.7257 132.391 36.7257 132.437 36.7716 132.437L36.8175 132.483C45.0256 140.536 55.8474 145 67.3571 145C79.0044 145 90.0097 140.444 98.2178 132.161C100.511 129.86 102.482 127.375 104.179 124.706C103.812 124.568 103.491 124.43 103.17 124.246Z" fill="#F39325"/>
<path d="M30.8563 68.5655V74.5017C31.2231 74.7778 31.7275 75.0079 32.3236 75.238V67.7372C31.8651 68.1974 31.3148 68.4275 30.8563 68.5655Z" fill="#F39325"/>
<path d="M102.161 55.5427C102.574 55.2206 103.033 54.8524 103.537 54.5303C102.895 45.8331 99.1808 37.734 92.9903 31.4757C86.112 24.5731 76.9868 20.7997 67.2654 20.7997C57.5441 20.7997 48.4189 24.6192 41.5406 31.4757C35.3042 37.734 31.59 45.8791 30.9938 54.6684C31.5441 54.9905 32.0027 55.3126 32.4154 55.6807C32.8281 46.9375 36.4048 38.7464 42.5952 32.5341C49.1984 25.9076 57.9568 22.2723 67.3113 22.2723C76.6658 22.2723 85.4242 25.9076 92.0274 32.5341C98.172 38.7464 101.749 46.8454 102.161 55.5427Z" fill="#F39325"/>
<path d="M103.675 68.5655C103.262 68.4735 102.666 68.2434 102.207 67.7372V75.1C102.803 74.8699 103.262 74.5938 103.675 74.3637V68.5655Z" fill="#F39325"/>
<path d="M102.207 84.1193V101.192C102.207 101.514 102.207 101.836 102.207 102.158C102.712 102.434 103.216 102.802 103.629 103.216C103.675 102.572 103.675 101.882 103.675 101.238V84.3954C103.216 84.3034 102.712 84.2574 102.207 84.1193Z" fill="#F39325"/>
<path d="M32.3236 84.1193C31.8192 84.2574 31.3148 84.3494 30.8563 84.3494V101.192C30.8563 102.756 30.948 104.275 31.1314 105.793C31.59 105.517 32.0485 105.287 32.5071 105.103C32.3695 103.815 32.2778 102.48 32.2778 101.146V84.1193H32.3236Z" fill="#F39325"/>
<path d="M93.9074 123.832C93.3113 124.568 92.6693 125.259 91.9815 125.949C85.3783 132.575 76.6199 136.211 67.2654 136.211C59.3783 136.211 51.9039 133.588 45.8051 128.802C45.6675 128.802 45.4841 128.848 45.3007 128.848C44.7046 128.894 44.1085 128.848 43.5123 128.848C50.1155 134.554 58.4612 137.683 67.2654 137.683C76.9868 137.683 86.112 133.864 92.9903 127.007C93.724 126.271 94.4118 125.489 95.0996 124.706C94.6869 124.476 94.2742 124.2 93.9074 123.832Z" fill="#F39325"/>
<path d="M130.408 110.717C130.271 110.349 130.041 110.073 129.675 109.889C129.308 109.705 128.941 109.705 128.62 109.797C128.253 109.935 127.978 110.165 127.795 110.487C127.29 111.361 126.74 112.19 126.19 113.11C126.19 113.11 126.144 113.202 125.96 113.432C125.823 113.662 125.593 113.984 125.364 114.307C125.135 114.675 124.814 115.043 124.493 115.457C124.172 115.871 123.851 116.239 123.53 116.561C123.209 116.884 122.934 117.16 122.659 117.344C122.384 117.528 122.2 117.574 122.017 117.528C121.604 117.344 121.466 116.745 121.696 115.825C121.879 114.905 122.246 113.846 122.75 112.558C122.796 112.466 122.842 112.328 122.934 112.236C123.026 112.098 123.071 111.96 123.071 111.822C123.53 110.717 124.08 109.521 124.676 108.278C125.41 106.76 126.098 105.333 126.786 103.953C127.474 102.572 128.07 101.376 128.574 100.317C129.078 99.259 129.399 98.5227 129.445 98.1085C129.537 97.7404 129.445 97.3723 129.216 97.0501C129.033 96.728 128.712 96.544 128.345 96.4059C127.978 96.3139 127.657 96.4059 127.336 96.59C127.061 96.8201 126.832 97.1422 126.648 97.5103C126.098 99.0289 125.41 100.547 124.585 102.02C123.805 103.447 123.071 104.873 122.384 106.3C121.65 107.726 121.008 109.153 120.412 110.625C120.228 111.085 120.045 111.546 119.907 112.006C119.724 112.328 119.541 112.65 119.311 113.018C118.853 113.8 118.394 114.537 117.936 115.319C117.431 116.055 116.927 116.699 116.468 117.206C115.964 117.712 115.505 117.988 115.138 118.034C114.863 118.034 114.634 117.896 114.588 117.574C114.542 117.252 114.496 116.838 114.542 116.423C114.542 116.009 114.634 115.595 114.726 115.181C114.817 114.767 114.909 114.537 114.955 114.399C115.184 113.8 115.964 112.558 116.239 112.052C116.422 111.73 116.606 111.039 116.468 110.671C116.331 110.303 116.239 110.073 115.826 109.843C115.459 109.613 115.047 109.705 114.726 109.843C114.451 109.935 114.084 110.211 113.854 110.487C113.671 110.717 113.442 111.131 113.075 111.638C112.846 112.006 112.479 112.558 112.158 112.972C111.883 113.386 111.516 113.846 111.103 114.399C110.69 114.951 110.232 115.503 109.773 116.055C109.269 116.607 108.81 117.16 108.352 117.574C107.893 117.988 107.481 118.31 107.114 118.54C106.747 118.724 106.472 118.724 106.288 118.54C105.967 118.218 105.83 117.758 105.83 117.16C105.83 116.607 105.967 116.009 106.197 115.365C106.426 114.721 106.655 114.122 106.976 113.616C107.251 113.064 107.526 112.65 107.756 112.328C108.535 111.269 109.361 110.349 110.232 109.521C111.103 108.738 112.066 108.048 113.167 107.45C113.304 107.404 113.534 107.266 113.854 107.128C114.13 106.99 114.634 106.806 115.093 106.806C115.826 106.806 115.964 107.22 116.652 107.404C117.156 107.542 117.615 107.312 117.844 107.036C118.119 106.76 118.119 106.622 118.165 106.254C118.211 105.839 118.027 105.333 117.752 105.011C117.523 104.781 117.248 104.551 116.927 104.413C116.606 104.275 116.239 104.183 115.964 104.091C115.047 103.907 114.313 103.953 113.442 104.183C112.525 104.459 111.653 104.873 110.828 105.379C110.003 105.885 109.223 106.484 108.535 107.082C107.847 107.726 107.205 108.37 106.655 109.015C106.151 109.659 105.601 110.395 105.096 111.223C104.913 111.361 104.775 111.546 104.683 111.73C104.225 112.65 103.72 113.478 103.216 114.261C102.62 115.089 102.07 115.871 101.428 116.653C100.786 117.436 100.098 118.08 99.2725 118.586C98.8598 118.816 98.5847 118.816 98.4012 118.586C98.2637 118.402 98.172 118.126 98.2178 117.896C98.3095 117.16 98.5388 116.469 98.8598 115.871C99.1808 115.273 99.5476 114.629 99.9145 114.03C100.419 113.156 100.877 112.236 101.244 111.223C101.428 110.763 101.611 110.211 101.795 109.659C101.932 109.107 102.024 108.508 102.024 107.956C102.024 107.404 101.932 106.898 101.703 106.438C101.474 105.977 101.107 105.563 100.602 105.241C100.235 105.011 99.8227 104.873 99.4101 104.873C98.9974 104.873 98.5847 104.873 98.172 105.011C97.7593 105.103 97.3466 105.287 97.0256 105.471C96.6587 105.655 96.3377 105.885 96.0168 106.162C95.6958 106.53 95.5582 106.668 95.4206 106.944C95.1914 107.312 94.4577 108.324 94.2742 108.324C94.1367 108.324 94.5494 107.266 94.5494 106.99C94.5494 106.576 94.4577 106.254 94.1825 105.931C93.8616 105.793 93.4947 105.747 93.082 105.885C92.7152 105.977 92.44 106.254 92.2566 106.622C91.2478 109.107 90.2848 111.407 89.3677 113.616C89.276 113.846 89.1843 114.076 89.0467 114.307L87.7169 116.884C87.4418 117.39 87.1667 117.942 86.8457 118.448C86.754 118.632 86.6164 118.77 86.5247 118.954C86.2037 119.414 85.9286 119.691 85.6993 119.829C85.5159 119.967 85.3783 120.013 85.3325 120.013C85.1032 119.967 84.9656 119.875 84.8739 119.783C84.7822 119.691 84.7363 119.599 84.7363 119.553C84.6446 119.276 84.5988 118.954 84.6905 118.54C84.7363 118.126 84.8739 117.758 85.0573 117.39C85.149 117.206 85.2866 116.884 85.5159 116.423C85.7451 115.963 85.9744 115.503 86.2954 114.951C86.5705 114.399 86.8457 113.846 87.1667 113.294C87.4877 112.742 87.7628 112.19 88.0379 111.73C88.313 111.269 88.5423 110.855 88.7257 110.487C88.9092 110.165 89.0009 109.981 89.0467 109.935C89.1843 109.659 89.2302 109.383 89.1843 109.107C89.1843 108.831 89.0467 108.554 88.8633 108.37C88.6799 108.186 88.4048 108.048 88.1755 108.002C87.9462 107.956 87.6711 107.956 87.3959 108.002C87.0291 108.094 86.7081 108.14 86.3413 108.186C86.0203 108.186 85.6993 108.186 85.47 108.14C85.2407 108.094 85.0573 107.956 84.9198 107.772C84.828 107.588 84.828 107.358 84.9198 106.99C85.0573 106.576 85.1032 106.208 85.1032 105.793C85.1032 105.379 85.0573 105.011 84.9656 104.597C84.8739 104.229 84.7363 103.907 84.5529 103.585C84.3695 103.308 84.1861 103.032 83.9568 102.848C83.4065 102.434 82.8104 102.158 82.1684 102.158C81.5265 102.158 80.9762 102.25 80.4259 102.526C79.8757 102.802 79.4171 103.17 79.0044 103.677C78.5917 104.183 78.3624 104.735 78.3166 105.333C78.1332 106.898 78.6376 108.186 79.9215 109.107C80.1049 109.245 80.4718 109.429 80.9762 109.659C81.4806 109.843 81.9392 110.027 82.4436 110.211C82.948 110.395 83.4065 110.533 83.7734 110.625C84.1402 110.763 84.3695 110.809 84.3695 110.809C84.6905 110.855 84.9197 110.993 85.0573 111.269C85.149 111.5 85.1949 111.776 85.0573 112.052C84.5529 113.064 84.1402 113.892 83.8192 114.629C83.4982 115.319 83.2231 115.825 83.0855 116.101C83.0397 116.239 82.9021 116.469 82.7645 116.791C82.627 117.114 82.4894 117.482 82.3519 117.896C82.2143 118.31 82.1684 118.77 82.1226 119.23C82.0767 119.691 82.1684 120.151 82.3519 120.611C82.4894 120.979 82.7187 121.347 83.0855 121.715C83.4524 122.083 83.9568 122.406 84.6446 122.636C84.8739 122.728 85.1949 122.728 85.6076 122.728C86.0203 122.728 86.433 122.59 86.9374 122.314C87.0291 122.268 87.1208 122.268 87.2125 122.222C87.6252 121.991 88.0838 121.853 88.4965 121.439C89.276 120.749 89.8263 119.783 90.3307 118.954C90.7892 118.126 91.2937 116.884 91.7981 116.101C92.119 115.549 92.6235 114.399 93.1279 113.524C93.6781 112.65 93.9074 112.006 94.5952 111.177C95.3289 110.303 95.6041 109.797 96.246 109.199C97.2549 108.278 97.5758 108.278 97.9427 108.094C98.3095 107.91 98.6305 107.864 98.9056 108.002C99.3183 108.186 99.1808 108.278 99.1349 108.646C99.0432 109.291 98.8598 109.889 98.5847 110.441C98.3095 110.993 98.0344 111.592 97.7134 112.144C97.4383 112.696 97.1173 113.248 96.7963 113.8C96.4753 114.353 96.2002 114.951 95.9709 115.503C95.7416 116.101 95.5582 116.699 95.4206 117.252C95.3289 117.85 95.2831 118.448 95.3748 119.092C95.4206 119.507 95.6041 119.967 95.8333 120.427C96.0168 120.795 96.246 121.071 96.567 121.255C96.888 121.439 97.209 121.623 97.5758 121.715C98.2637 121.853 98.9056 121.807 99.5935 121.577C100.235 121.347 100.832 120.979 101.428 120.565C101.978 120.151 102.528 119.645 102.987 119.138C103.078 119 103.216 118.862 103.308 118.77C103.537 119.46 103.95 120.105 104.592 120.611C105.188 121.071 105.83 121.301 106.609 121.301C106.93 121.301 107.297 121.255 107.618 121.117C107.893 120.979 108.214 120.841 108.535 120.703C108.627 120.657 108.765 120.565 108.902 120.473C108.994 120.427 109.131 120.335 109.269 120.243C109.315 120.243 109.361 120.197 109.498 120.105C109.59 120.013 109.773 119.921 109.911 119.783C110.049 119.691 110.186 119.553 110.324 119.46C110.461 119.368 110.553 119.322 110.553 119.322C110.736 119.138 110.966 119.046 111.149 119.046C111.332 119.046 111.47 119.046 111.653 119.138C111.837 119.184 112.02 119.322 112.204 119.507C112.387 119.691 112.616 119.829 112.892 120.013C113.854 120.657 114.817 120.841 115.872 120.611C116.652 120.427 117.431 119.967 118.119 119.276C118.532 118.908 118.899 118.494 119.265 118.08C119.357 118.402 119.449 118.678 119.632 118.954C119.907 119.414 120.228 119.783 120.687 119.967C121.1 120.151 121.558 120.197 122.017 120.197C122.475 120.197 122.934 120.059 123.392 119.875C123.851 119.691 124.218 119.507 124.539 119.23C125.089 118.816 125.639 118.31 126.098 117.804C126.556 117.298 127.015 116.745 127.428 116.193C127.978 115.457 128.482 114.721 128.987 113.984C129.491 113.248 129.996 112.466 130.408 111.684C130.5 111.454 130.546 111.085 130.408 110.717ZM82.306 106.07C82.2601 106.254 82.1684 106.438 82.0309 106.576C81.8016 106.76 81.5723 106.806 81.2972 106.668C81.0679 106.53 80.9303 106.392 80.9303 106.162C80.9303 105.793 80.9762 105.425 81.1596 105.149C81.343 104.965 81.5723 104.873 81.8016 104.965C82.0309 105.011 82.2143 105.195 82.2601 105.471C82.3519 105.701 82.3518 105.885 82.306 106.07Z" fill="#F39325"/>
<path d="M80.3342 110.533C79.9674 110.349 79.6005 110.349 79.2337 110.441C78.8668 110.579 78.5917 110.809 78.4083 111.177C78.0873 111.73 77.858 112.604 77.3536 113.708C76.6658 115.227 75.8862 116.377 75.5194 116.884C75.0609 117.574 74.6023 118.218 74.1437 118.678C73.6852 119.138 73.2725 119.645 72.8598 120.105C72.6764 120.243 72.5388 120.243 72.4471 120.105C72.3554 119.967 72.3095 119.737 72.3554 119.46C72.4929 118.126 72.8598 116.884 73.4101 115.733C73.9145 114.537 74.4647 113.432 74.9691 112.328C75.2443 111.73 75.5653 111.131 75.8862 110.533C76.1614 109.935 76.5282 109.383 76.8951 108.831C77.0785 108.554 77.1243 108.278 77.0326 107.91C76.9409 107.588 76.8033 107.312 76.5741 107.128C76.2531 106.852 75.9321 106.76 75.5194 106.76C75.336 106.76 75.1984 106.806 75.015 106.898C74.8774 106.944 74.694 107.082 74.6023 107.22C73.3642 108.969 72.0344 110.717 70.6587 112.466C69.2831 114.169 67.8616 115.825 66.3483 117.436C65.7064 118.126 65.0185 118.77 64.2848 119.414C64.0556 119.599 63.8263 119.783 63.597 119.967C63.4136 120.151 63.1384 120.335 62.8633 120.473C62.3589 120.795 62.1296 120.611 62.2213 119.967C62.2672 119.783 62.313 119.599 62.3589 119.414C62.4048 119.23 62.4506 119.046 62.5423 118.862C62.7258 118.31 62.955 117.758 63.2302 117.252C63.5053 116.745 63.7804 116.239 64.1014 115.779C64.8351 114.675 65.4771 113.616 66.0732 112.604C66.6235 111.592 67.1737 110.671 67.7698 109.751C67.9074 109.475 68.045 109.153 68.1825 108.785C68.2743 108.462 68.2742 108.094 68.2284 107.726C68.1825 107.542 68.1367 107.358 68.0908 107.174C68.045 107.036 67.9074 106.852 67.7698 106.714C67.4489 106.438 67.1279 106.346 66.7152 106.346C66.3483 106.346 66.0273 106.53 65.7522 106.806C65.6605 106.944 65.5229 107.082 65.4771 107.312C65.3854 107.496 65.3854 107.68 65.4312 107.864C65.4312 108.186 65.3395 108.462 65.1561 108.739C65.0185 109.015 64.8351 109.291 64.6517 109.475C63.7346 110.855 62.8633 112.144 62.1296 113.34C61.9462 113.616 61.8086 113.846 61.6711 114.123C61.5794 114.215 61.4877 114.353 61.3959 114.491C60.7081 115.641 60.112 116.653 59.5617 117.666C59.0115 118.678 58.4153 119.553 57.8192 120.381C57.6358 120.657 57.3607 120.887 57.0397 121.071C56.7187 121.209 56.3977 121.255 56.1226 121.255C55.8474 121.209 55.6182 121.071 55.4347 120.795C55.2513 120.565 55.2055 120.151 55.2972 119.599C55.343 119.368 55.343 119.138 55.3889 118.954C55.3889 118.77 55.4347 118.632 55.4806 118.448C55.5265 118.31 55.5723 118.126 55.6182 117.988C55.664 117.85 55.7099 117.62 55.8016 117.344C56.0767 116.607 56.3519 115.917 56.7187 115.227C57.0397 114.537 57.4065 113.846 57.7275 113.156C58.0485 112.558 58.4153 111.914 58.7363 111.315C59.0573 110.717 59.3783 110.073 59.6993 109.429C59.9286 108.923 60.2496 108.508 60.6164 108.186C60.9374 107.864 61.3959 107.588 61.8545 107.358C62.1296 107.22 62.4048 107.128 62.634 107.036C62.8175 106.99 63.1843 106.806 63.6887 106.576C63.9638 106.438 64.1931 106.208 64.3307 105.885C64.4683 105.563 64.5141 105.241 64.4683 104.919C64.4224 104.643 64.239 104.367 64.0097 104.183C63.7346 103.999 63.4594 103.907 63.1385 103.953C62.7716 103.999 62.5882 103.953 62.4965 103.907C62.4506 103.815 62.4506 103.631 62.5423 103.308C62.5882 103.17 62.634 103.032 62.6799 102.894C62.7258 102.756 62.7716 102.664 62.8175 102.526C62.9092 102.158 62.8175 101.79 62.634 101.468C62.4048 101.146 62.0838 100.916 61.7169 100.824C61.3042 100.732 60.9374 100.778 60.6164 101.008C60.2954 101.238 60.0661 101.514 60.0203 101.928C59.9744 102.158 59.9286 102.388 59.791 102.664C59.6993 102.894 59.6076 103.124 59.5159 103.354C59.3324 103.769 59.149 104.137 58.9198 104.413C58.7363 104.689 58.4153 104.919 58.0944 105.011C57.8192 105.103 57.4524 105.195 57.0397 105.333C56.627 105.471 56.306 105.655 55.985 105.977C55.7099 106.254 55.6182 106.622 55.6182 107.036C55.6182 107.45 55.8016 107.772 56.0767 108.048C56.2601 108.186 56.3977 108.232 56.5811 108.232C56.7187 108.232 56.8563 108.232 56.948 108.232C57.0397 108.232 57.0397 108.37 56.948 108.554C56.9021 108.738 56.7187 109.107 56.3977 109.659C55.5723 111.177 54.7928 112.742 54.0132 114.307C53.8757 114.583 53.7381 114.859 53.6464 115.135C53.5547 115.227 53.5088 115.319 53.463 115.411C53.3713 115.549 53.142 115.825 52.8668 116.193C52.5917 116.561 52.2707 116.93 51.9039 117.39C51.537 117.804 51.1243 118.31 50.7116 118.77C50.2531 119.23 49.7945 119.691 49.3818 120.105C49.1067 120.381 48.694 120.703 48.1896 121.071C47.6852 121.439 47.0891 121.761 46.5388 122.037C45.9427 122.268 45.3924 122.452 44.7963 122.544C44.246 122.636 43.7875 122.544 43.4206 122.268C43.0996 122.037 42.8704 121.715 42.7787 121.347C42.6869 120.933 42.6411 120.565 42.6869 120.105C42.7328 119.691 42.7787 119.276 42.9162 118.862C43.0538 118.448 43.1455 118.08 43.2831 117.758C43.5582 116.976 43.925 116.193 44.3836 115.319C44.8421 114.445 45.3466 113.708 45.851 113.018C46.0802 112.742 46.3095 112.466 46.5388 112.19C46.8139 111.868 47.0891 111.592 47.4101 111.407C47.9145 110.993 48.373 110.901 48.7399 111.039C49.1526 111.223 49.4277 111.454 49.5653 111.684C49.657 111.914 49.7028 112.19 49.7028 112.42C49.7028 112.604 49.657 112.834 49.5653 113.064C49.4735 113.294 49.336 113.524 49.1526 113.8C49.0608 113.938 48.9691 114.123 48.9691 114.353C48.9691 114.537 48.9691 114.721 49.0608 114.905C49.1984 115.273 49.4277 115.549 49.7487 115.733C50.0697 115.871 50.4365 115.917 50.8492 115.825C51.0326 115.779 51.1702 115.687 51.2619 115.549C51.3536 115.411 51.4912 115.273 51.6287 115.089C51.9497 114.629 52.179 114.076 52.3166 113.524C52.4541 112.926 52.5 112.328 52.5 111.868C52.4541 111.315 52.2707 110.809 51.9956 110.303C51.7205 109.843 51.3536 109.429 50.8951 109.061C50.4365 108.739 49.978 108.508 49.4735 108.37C48.9691 108.232 48.4189 108.186 47.9145 108.278C46.9056 108.462 46.0344 108.877 45.3007 109.475C45.0714 109.659 44.888 109.843 44.6587 110.073C44.567 110.119 44.4753 110.211 44.3836 110.303C43.7875 110.993 43.0996 111.592 42.2742 112.052C41.4947 112.558 40.7152 112.972 39.9356 113.294C39.5688 113.432 39.2936 113.386 39.2019 113.11C39.1102 112.834 38.9727 112.512 38.8351 112.19C38.6975 111.638 38.4683 111.131 38.239 110.671C38.0097 110.165 37.7346 109.751 37.4136 109.383C37.0926 109.015 36.6799 108.738 36.2672 108.554C35.8086 108.37 35.2584 108.278 34.6623 108.324C33.8369 108.416 33.1032 108.785 32.4153 109.521C31.3607 110.165 30.4436 110.947 29.664 111.776C28.8845 112.65 28.1966 113.57 27.6005 114.537C27.2795 115.089 26.9586 115.641 26.7293 116.239C26.4083 116.792 25.9039 117.712 25.7205 118.08C25.1702 119.23 24.8033 119.46 24.1614 120.473C23.4277 121.531 22.3272 122.958 21.5476 123.924C20.7222 124.891 19.851 125.719 18.8422 126.409C18.3377 126.685 17.9709 126.685 17.7416 126.409C17.5582 126.133 17.4665 125.811 17.5123 125.489C17.6499 124.522 18.8422 122.406 19.3007 121.623C19.7134 120.841 20.172 120.059 20.6305 119.276C21.2725 118.126 23.9321 113.662 24.4365 112.466C24.6658 111.868 24.9409 111.177 25.1243 110.441C25.3078 109.705 25.4453 109.015 25.4453 108.278C25.4453 107.588 25.3078 106.898 25.0326 106.346C24.7575 105.747 24.2989 105.241 23.6111 104.873C23.1526 104.597 22.6481 104.413 22.0979 104.413C21.5935 104.413 21.0432 104.459 20.5388 104.597C20.0344 104.735 19.53 104.919 19.0714 105.195C18.6129 105.425 18.2919 105.609 17.9709 105.931C17.5582 106.346 16.7328 107.22 16.366 107.818C15.7698 108.785 15.3571 109.475 15.1737 109.475C14.8986 109.475 15.4947 108.554 15.7698 107.45C15.9991 106.576 15.9074 106.116 15.3113 105.747C14.9903 105.517 14.44 105.517 14.119 105.609C13.6146 105.747 13.2936 106.07 13.0644 106.53C11.6429 110.625 10.3589 114.353 6.36949 121.761C4.94797 124.384 3.93915 126.455 2.15079 129.446C0.958551 131.149 0.362431 132.391 0.499998 133.312C0.545853 133.818 0.958551 134.14 1.37125 134.37C1.8298 134.6 2.28836 134.6 2.74691 134.416C3.15961 134.278 3.38889 134.094 3.84744 133.45C4.48942 132.437 4.99382 131.471 5.58994 130.459C6.18606 129.446 7.69929 126.915 8.84568 124.752C10.3589 122.314 11.4594 120.473 11.9638 119.553C13.1102 117.528 14.3025 115.411 15.1279 114.399C16.6411 112.42 17.6041 111.039 18.246 110.119C18.888 109.245 19.4841 108.923 19.8968 108.692C20.2637 108.462 20.6764 108.324 21.0432 108.324C21.4101 108.324 21.5476 108.554 21.5018 109.015C21.4101 109.843 21.1808 110.579 20.8139 111.315C20.4471 112.052 20.0802 112.742 19.7134 113.478C19.3466 114.169 17.8333 116.515 17.4206 117.252C17.0079 117.988 15.4947 120.289 14.9444 121.301C14.1649 122.682 13.8898 123.878 13.7522 124.614C13.6146 125.351 13.6146 126.133 13.7063 126.915C13.7522 127.467 13.9815 128.02 14.3025 128.618C14.4859 129.032 14.8069 129.4 15.2196 129.676C15.6323 129.906 16.045 130.136 16.5035 130.275C17.3748 130.459 18.246 130.413 19.0256 130.09C19.851 129.768 20.5847 129.308 21.3183 128.756C22.052 128.204 23.6111 126.271 24.2531 125.627C24.8492 124.937 25.3995 124.338 25.858 123.74C26.0873 124.338 26.4541 124.798 26.9127 125.213C27.6005 125.811 28.3801 126.133 29.343 126.133C29.8474 126.133 30.3977 126.041 30.8563 125.811C31.3607 125.627 31.8192 125.351 32.2319 125.029C32.6446 124.706 33.0573 124.384 33.47 124.016C33.8827 123.648 34.2496 123.28 34.5705 122.912C35.3501 122.037 35.9462 121.255 36.4506 120.519C36.955 119.783 37.3677 119.046 37.6429 118.31C37.8721 117.804 38.1014 117.344 38.3765 117.022C38.6517 116.699 39.0644 116.423 39.5688 116.239C39.8898 116.147 40.2108 116.009 40.4859 115.917C40.3942 116.101 40.3483 116.331 40.2566 116.515C39.9356 117.436 39.7063 118.31 39.5688 119.276C39.4771 120.197 39.4771 121.117 39.5688 122.037C39.7522 122.866 40.2108 123.556 40.8069 124.108C41.5406 124.798 42.366 125.213 43.3748 125.259C44.3377 125.351 45.2548 125.259 46.1261 125.029C47.0891 124.752 48.0062 124.338 48.8316 123.786C49.657 123.234 50.4365 122.636 51.1243 121.991C51.4453 121.715 51.7663 121.439 52.0414 121.163C52.0873 121.807 52.2707 122.36 52.5917 122.774C53.142 123.602 53.8757 124.062 54.7928 124.246C55.7099 124.384 56.6728 124.246 57.6817 123.832C58.4153 123.51 59.0115 123.05 59.5617 122.406C59.6993 122.636 59.8369 122.866 59.9744 123.05C60.2037 123.326 60.5247 123.51 60.8915 123.648C61.2584 123.74 61.6252 123.786 61.9921 123.74C62.5882 123.694 63.1384 123.464 63.6887 123.142C64.239 122.82 64.7434 122.452 65.1561 122.083C65.7522 121.623 66.3025 121.117 66.8527 120.565C67.3571 120.013 67.9533 119.46 68.4577 118.954C68.7328 118.678 68.9621 118.54 69.1455 118.494C69.3289 118.494 69.4206 118.632 69.3748 119.046C69.2831 119.645 69.2372 120.243 69.2831 120.795C69.2831 121.347 69.4665 121.899 69.7416 122.36C70.0626 122.866 70.5212 123.188 71.0714 123.326C71.6217 123.464 72.172 123.418 72.7222 123.28C73.2725 123.142 73.731 122.866 74.1896 122.544C74.6481 122.222 75.0608 121.853 75.4277 121.439C75.7945 121.025 76.1614 120.611 76.4824 120.151C76.8034 119.737 77.1243 119.322 77.3995 118.908C77.858 118.218 79.0044 116.285 79.4171 115.595C79.8298 114.951 80.5176 113.202 80.8386 112.374C81.022 112.006 81.0679 111.638 80.9303 111.269C80.9303 110.947 80.7011 110.717 80.3342 110.533ZM34.7081 118.172C34.3413 118.908 33.8369 119.599 33.2866 120.289C32.6905 120.933 32.1402 121.531 31.4982 122.083C31.269 122.268 30.9938 122.452 30.6728 122.682C30.3519 122.912 29.985 123.05 29.664 123.142C29.343 123.234 29.022 123.188 28.7469 123.096C28.5176 122.958 28.3342 122.636 28.2884 122.129C28.2425 121.531 28.2425 120.887 28.2884 120.289C28.3342 119.645 28.4718 119 28.6552 118.402C28.7928 117.804 29.0679 117.206 29.343 116.653C29.6182 116.101 29.985 115.595 30.3518 115.181C30.8563 114.491 31.3607 114.445 31.8651 114.997C32.2319 115.319 32.5988 115.641 32.9656 115.917C33.3325 116.193 33.7451 116.423 34.2037 116.607C34.5247 116.791 34.754 117.022 34.7998 117.344C34.8915 117.574 34.8457 117.896 34.7081 118.172ZM35.7169 113.708C35.5794 113.938 35.3042 113.938 34.7998 113.754C34.6623 113.708 34.5247 113.662 34.433 113.524C34.3413 113.432 34.2496 113.34 34.1578 113.248C33.8827 113.064 33.791 112.742 33.8369 112.328C33.8827 111.914 34.112 111.638 34.5247 111.5C35.075 111.361 35.4418 111.407 35.6252 111.73C35.8086 112.052 35.9004 112.466 35.9462 112.926C35.9462 113.248 35.8545 113.478 35.7169 113.708Z" fill="#F39325"/>
<path d="M120.137 72.8451C121.191 71.5106 120.916 69.762 120.458 68.6576C123.438 65.6204 122.613 62.9514 122.063 61.893C121.329 60.4205 119.907 60.0524 119.036 59.9143C118.899 58.4878 118.348 57.3834 117.385 56.5551C115.78 55.1745 113.625 55.1745 112.754 55.2206C108.398 51.4932 104.041 52.8737 101.336 55.4506C99.6393 57.0612 99.6393 59.178 99.7769 60.1444C99.6393 60.2364 99.5018 60.3745 99.3642 60.5585C98.8598 61.2488 98.5847 62.1231 98.5388 63.2275C98.493 66.2647 100.832 67.139 102.116 67.185C102.391 67.185 102.62 67.047 102.758 66.8169C103.445 65.6664 103.996 65.8505 104.179 65.8965C105.234 66.2187 106.288 68.1514 106.243 69.2558C106.151 71.0505 104.638 72.8911 103.262 73.8575C102.482 74.4097 101.107 74.8699 99.5476 75.4221C98.0344 75.9743 96.2919 76.5725 94.5035 77.4008C90.5141 79.2875 88.6799 83.4291 88.5882 83.5671C88.4506 83.8432 88.5423 84.2113 88.7716 84.3954C88.9092 84.4875 89.0926 84.5795 89.2302 84.5795C89.3677 84.5795 89.5053 84.5335 89.6429 84.4414C94.5035 81.2202 96.9797 81.2663 97.53 81.3123C100.511 83.5671 103.445 82.6928 104.867 81.7264C109.636 83.7512 112.616 82.0946 113.625 81.3583C115.735 82.0946 119.541 82.4167 121.237 79.1034C122.934 75.8822 121.237 73.8115 120.137 72.8451ZM119.953 78.5052C118.257 81.7724 113.946 80.0238 113.763 79.9318C113.488 79.8397 113.167 79.8857 112.983 80.0698C112.892 80.1618 110.186 82.6928 105.096 80.2999C104.821 80.1618 104.546 80.2079 104.317 80.3919C104.317 80.3919 103.629 80.9441 102.528 81.2202C101.061 81.5884 99.6393 81.1742 98.2637 80.1158C98.172 80.0698 98.1261 80.0238 98.0344 79.9778C97.8968 79.9318 97.1173 79.7477 95.6499 80.0698C94.4118 80.3459 92.9903 80.8981 91.4771 81.6804C92.3483 80.622 93.5406 79.4256 95.0997 78.6893C96.8422 77.861 98.5388 77.2628 100.006 76.7566C101.749 76.1584 103.124 75.6522 104.087 75.0079C105.784 73.8115 107.572 71.5566 107.664 69.2558C107.71 67.7372 106.426 64.9762 104.546 64.424C104.362 64.378 104.133 64.332 103.858 64.332C103.216 64.332 102.437 64.6081 101.703 65.6204C101.474 65.5744 101.198 65.4824 100.923 65.2983C100.235 64.8842 99.9145 64.1939 99.9145 63.1815C99.9145 61.5709 100.648 61.1568 100.74 61.1108C101.107 60.9727 101.244 60.6506 101.153 60.2824C101.153 60.1904 100.648 57.9816 102.253 56.463C106.609 52.2755 110.736 55.4046 111.929 56.463C112.066 56.6011 112.295 56.6931 112.525 56.6471C112.571 56.6471 114.909 56.371 116.377 57.6134C117.019 58.1657 117.431 58.994 117.523 60.0984L117.477 60.1444C117.248 60.4205 117.064 60.4205 117.019 60.4665C116.698 60.4665 116.331 60.1904 116.239 60.0984C115.964 59.8223 115.505 59.8223 115.23 60.0984C114.955 60.3745 114.955 60.8347 115.23 61.1108C115.322 61.2028 116.056 61.893 117.019 61.893C117.064 61.893 117.11 61.893 117.156 61.893C117.523 61.893 118.027 61.755 118.486 61.2488C118.853 61.2488 120.228 61.3408 120.779 62.4452C121.283 63.4116 121.742 65.4364 119.082 67.8753C118.853 68.1054 118.761 68.4735 118.944 68.7956C118.944 68.7956 119.311 69.4399 119.403 70.1761C119.541 71.0505 119.265 71.7407 118.623 72.2469H118.578C117.431 72.9832 116.468 72.2929 116.422 72.2929C116.239 72.1549 116.056 72.1088 115.872 72.1549C115.689 72.2009 115.505 72.2929 115.414 72.477C115.001 73.1212 114.496 73.4894 113.946 73.5814C112.8 73.7655 111.608 72.8911 111.608 72.8911C111.287 72.661 110.828 72.7071 110.599 73.0292C110.37 73.3513 110.415 73.8115 110.736 74.0416C110.782 74.0876 112.066 75.0539 113.625 75.0539C113.809 75.0539 113.992 75.0539 114.221 75.0079C115.001 74.8699 115.735 74.4557 116.285 73.8115C116.927 74.0416 117.936 74.2716 119.082 73.7194C119.724 74.3177 121.375 75.8362 119.953 78.5052Z" fill="#F39325"/>
<path d="M111.195 63.9178C111.608 64.47 112.387 65.0682 113.442 65.0682C113.763 65.0682 114.13 65.0222 114.542 64.8842C114.909 64.7461 115.138 64.332 115.001 63.9638C114.863 63.5957 114.451 63.3656 114.084 63.5037C112.846 63.9178 112.341 62.9975 112.25 62.8134C112.112 62.4913 111.745 62.3072 111.424 62.3992C110.736 62.5833 110.186 62.5373 109.865 62.3072C109.407 61.9391 109.269 61.2488 109.269 60.9727C109.269 60.5586 108.902 60.2364 108.535 60.2825C108.123 60.2825 107.802 60.6046 107.802 61.0187C107.802 61.2028 107.847 62.6293 108.948 63.5037C109.498 63.9178 110.278 64.0559 111.195 63.9178Z" fill="#F39325"/>
<path d="M45.9427 83.6131C45.851 83.4291 44.0168 79.2875 40.0273 77.4468C38.1931 76.6185 36.4965 75.9743 34.9832 75.4681C33.3783 74.9159 32.0485 74.4097 31.269 73.9035C29.8933 72.9372 28.3801 71.0965 28.2884 69.3018C28.2425 68.1974 29.343 66.2647 30.3519 65.9426C30.5353 65.8965 31.0855 65.7125 31.7734 66.8629C31.9109 67.093 32.1402 67.231 32.4153 67.231C33.6993 67.185 36.0379 66.3107 35.9921 63.2736C35.9921 61.5249 35.2584 60.6046 34.754 60.1904C34.8457 59.2241 34.8457 57.1073 33.1949 55.4967C32.4153 54.7144 30.7187 53.4259 28.4718 53.0578C26.1332 52.6896 23.9321 53.4259 21.7769 55.2666C20.9515 55.2206 18.7504 55.2666 17.1455 56.6011C16.2284 57.4294 15.6323 58.5338 15.4947 59.9603C14.6235 60.0524 13.2019 60.4665 12.4683 61.9391C11.918 62.9975 11.0926 65.6665 14.0732 68.7036C13.6146 69.808 13.2936 71.5566 14.3942 72.8911C13.2936 73.8115 11.597 75.9283 13.2936 79.1955C15.0362 82.5547 18.8421 82.1866 20.9056 81.4503C21.9145 82.1866 24.8951 83.8892 29.664 81.8185C31.0855 82.7848 34.0203 83.6592 37.0009 81.4043C37.2302 81.3583 37.8263 81.3583 38.7892 81.5884C39.9815 81.8645 41.9991 82.6008 44.888 84.5335C45.0256 84.6255 45.1631 84.6715 45.3007 84.6715C45.4841 84.6715 45.6217 84.6255 45.7593 84.4875C45.9885 84.2574 46.0802 83.9353 45.9427 83.6131ZM38.881 80.1158C38.1931 79.9778 37.6887 79.9318 37.3219 79.9318C36.8175 79.9318 36.5882 79.9778 36.4965 80.0238C36.4048 80.0698 36.3131 80.1158 36.2672 80.1619C33.0573 82.7388 30.3519 80.53 30.2601 80.438C30.0309 80.2539 29.7557 80.2079 29.4806 80.3459C24.3448 82.6928 21.6852 80.2079 21.5935 80.1158C21.3642 79.8858 21.0891 79.8397 20.8139 79.9778C20.6305 80.0698 16.3201 81.8185 14.6235 78.5513C13.2478 75.8823 14.8527 74.3637 15.6323 73.8115C16.7787 74.3637 17.7875 74.1796 18.4294 73.9035C19.0256 74.5938 19.7134 74.9619 20.4929 75.1C20.6764 75.146 20.9056 75.146 21.0891 75.146C22.6481 75.146 23.9321 74.1796 23.978 74.1336C24.2989 73.9035 24.3448 73.4433 24.1155 73.1212C23.8862 72.7991 23.4277 72.7531 23.1067 72.9832C23.1067 72.9832 21.9145 73.8575 20.7681 73.6734C20.172 73.5814 19.7134 73.2133 19.3007 72.569C19.209 72.385 19.0256 72.2929 18.8421 72.2469C18.6587 72.2009 18.4294 72.2469 18.2919 72.385C18.246 72.431 17.2831 73.0752 16.1367 72.3389H16.0908C14.5317 71.1425 15.724 68.9797 15.7698 68.8877C15.9533 68.6116 15.9074 68.1974 15.6323 67.9673C13.0185 65.5744 13.4312 63.5497 13.9356 62.5373C14.4859 61.3869 15.8615 61.3408 16.2284 61.3408C16.6869 61.847 17.1914 61.9391 17.5582 61.9851C17.6041 61.9851 17.6499 61.9851 17.6958 61.9851C18.6587 61.9851 19.3924 61.2488 19.4841 61.2028C19.7593 60.9267 19.7593 60.4665 19.4841 60.1904C19.209 59.9143 18.7504 59.9143 18.4753 60.1904C18.3836 60.2825 18.0168 60.6046 17.6958 60.5586C17.6499 60.5586 17.4665 60.5586 17.2372 60.2364C17.2372 60.1904 17.1914 60.1904 17.1914 60.1904C17.2831 59.132 17.6958 58.3037 18.3377 57.7055C19.8051 56.463 22.1437 56.7391 22.1896 56.7391C22.4189 56.7852 22.6023 56.6931 22.7857 56.5551C23.978 55.4967 28.1049 52.3675 32.4612 56.5551C34.0661 58.0736 33.5617 60.2825 33.5617 60.3745C33.47 60.7426 33.6534 61.1108 33.9744 61.2028C34.0661 61.2488 34.7998 61.709 34.7998 63.2736C34.7998 64.2859 34.4788 64.9762 33.791 65.3904C33.5159 65.5744 33.2407 65.6665 33.0115 65.7125C31.9568 64.2859 30.8104 64.332 30.2143 64.562C28.3342 65.1143 27.0503 67.8753 27.0961 69.3938C27.1878 71.6947 28.9762 73.9495 30.6728 75.146C31.5899 75.7902 33.0115 76.2964 34.754 76.8946C36.2213 77.4008 37.918 77.9991 39.6605 78.8274C41.2196 79.5636 42.4577 80.7141 43.2831 81.8185C41.5406 80.9441 40.1649 80.3919 38.881 80.1158Z" fill="#F39325"/>
<path d="M26.0873 60.2364C25.6746 60.2364 25.3536 60.5585 25.3536 60.9267C25.3536 61.2028 25.216 61.893 24.7575 62.2612C24.3906 62.5373 23.8862 62.5373 23.1984 62.3532C22.8774 62.2612 22.5106 62.4453 22.373 62.7214C22.2813 62.9054 21.731 63.8718 20.5388 63.4116C20.172 63.2736 19.7593 63.4576 19.6217 63.8718C19.4841 64.2399 19.6675 64.6541 20.0802 64.7921C20.4929 64.9302 20.8598 64.9762 21.1808 64.9762C22.2354 64.9762 22.9691 64.378 23.4277 63.8258C24.3448 63.9638 25.1243 63.8258 25.7205 63.3656C26.821 62.5373 26.8668 61.0647 26.8668 60.8807C26.821 60.6046 26.5 60.2824 26.0873 60.2364Z" fill="#F39325"/>
<path d="M81.5723 51.125H53.2337C51.3536 51.125 49.7945 52.6436 49.7945 54.5763C49.7945 56.463 51.3078 58.0276 53.2337 58.0276H67.7698L70.7504 59.6842H55.6182V61.2028C55.6182 63.6417 57.5899 65.5744 59.9744 65.5744H74.7857C77.216 65.5744 79.142 63.5957 79.142 61.2028V59.6842H76.5741L77.6746 58.0276H81.5723C83.4524 58.0276 85.0115 56.509 85.0115 54.5763C85.0115 52.6436 83.4524 51.125 81.5723 51.125ZM77.6746 61.1568C77.6746 62.7674 76.3906 64.0558 74.7857 64.0558H60.0661C58.4612 64.0558 57.1772 62.7674 57.1772 61.1568V61.1108L77.6746 61.1568ZM53.2337 56.509C52.1331 56.509 51.2619 55.6347 51.2619 54.5303C51.2619 53.4259 52.1331 52.5516 53.2337 52.5516H58.0943L59.9286 53.5639L65.2019 56.509H53.2337ZM61.3042 52.6896H79.4171L75.2901 58.9479C74.8774 59.5922 74.052 59.7763 73.3642 59.4081L70.7963 57.9816L61.3042 52.6896ZM81.5723 56.509H78.6376L80.7928 53.2418L81.2513 52.5516H81.5723C82.6728 52.5516 83.5441 53.4259 83.5441 54.5303C83.5441 55.6347 82.6728 56.509 81.5723 56.509Z" fill="#F39325"/>
<path d="M75.2443 49.5604H59.6076C57.4524 49.5604 55.7099 47.8118 55.7099 45.649C55.7099 40.219 60.9832 35.8473 67.4488 35.8473C73.9145 35.8473 79.1878 40.265 79.1878 45.649C79.142 47.8118 77.3995 49.5604 75.2443 49.5604ZM67.403 37.3199C61.7628 37.3199 57.1314 41.0473 57.1314 45.649C57.1314 46.9835 58.2319 48.0879 59.5617 48.0879H75.2443C76.5741 48.0879 77.6746 46.9835 77.6746 45.649C77.6746 41.0473 73.0891 37.3199 67.403 37.3199Z" fill="#F39325"/>
<path d="M88.8175 97.4643L71.9427 68.1514C71.7593 67.7833 71.3007 67.6912 70.9339 67.8753C70.567 68.0594 70.4753 68.5195 70.6587 68.8877L84.3236 92.6785C84.2778 92.6785 84.2778 92.7245 84.2319 92.7245C79.5088 96.9581 72.3554 96.9581 67.6323 92.7245C63.0467 88.629 56.3977 88.0768 51.2619 91.1139L64.0556 68.8877C64.239 68.5195 64.1473 68.1054 63.7804 67.8753C63.4136 67.6912 63.0009 67.7833 62.7716 68.1514L45.8968 97.4643C45.7134 97.8325 45.8051 98.2466 46.172 98.4767C46.3095 98.5227 46.4012 98.5687 46.5388 98.5687C46.7681 98.5687 47.0432 98.4307 47.1808 98.2006L49.6111 94.013C49.7487 94.013 49.9321 93.967 50.0238 93.829C54.7469 89.5954 61.9004 89.5954 66.6235 93.829C69.2831 96.1758 72.5847 97.3723 75.8862 97.3723C79.142 97.3723 82.3977 96.2219 85.0115 93.967L87.4418 98.2006C87.5794 98.4307 87.8086 98.5687 88.0838 98.5687C88.2213 98.5687 88.3131 98.5227 88.4506 98.4767C88.9092 98.2926 89.0467 97.8325 88.8175 97.4643Z" fill="#F39325"/>
<path d="M66.5317 78.4592C65.2019 78.4592 64.1014 77.3548 64.1014 76.0203C64.1014 74.6858 65.2019 73.5814 66.5317 73.5814C67.8616 73.5814 68.9621 74.6858 68.9621 76.0203C68.9621 77.3548 67.9074 78.4592 66.5317 78.4592ZM66.5317 75.054C65.9815 75.054 65.5229 75.5141 65.5229 76.0663C65.5229 76.6185 65.9815 77.0787 66.5317 77.0787C67.082 77.0787 67.5406 76.6185 67.5406 76.0663C67.5406 75.5141 67.082 75.054 66.5317 75.054Z" fill="#F39325"/>
<path d="M73.3642 89.6414C71.7134 89.6414 70.3378 88.2609 70.3378 86.6043C70.3378 84.9476 71.7134 83.5671 73.3642 83.5671C75.015 83.5671 76.3907 84.9476 76.3907 86.6043C76.3907 88.3069 75.0609 89.6414 73.3642 89.6414ZM73.3642 85.0397C72.493 85.0397 71.8051 85.7299 71.8051 86.6043C71.8051 87.4786 72.493 88.1688 73.3642 88.1688C74.2355 88.1688 74.9233 87.4786 74.9233 86.6043C74.9691 85.7299 74.2355 85.0397 73.3642 85.0397Z" fill="#F39325"/>
</g>
<defs>
<clipPath id="clip0_184_18">
<rect width="130" height="145" fill="white" transform="translate(0.5)"/>
</clipPath>
</defs>
</svg>
